<svg version="1.1" xmlns="http://www.w3.org/2000/svg" viewBox="0 0 1269.2753447994862 693.9621913627559">
  <!-- svg-source:excalidraw -->

  <rect x="0" y="0" width="1269.2753447994862" height="693.9621913627559" fill="#ffffff"></rect><g transform="translate(302.86317567567727 68.8203125) rotate(0 75.5625 48.44140625)"><path d="M43.93442821579397 3.2550827226967627 C54.105997179710414 -0.39205567074216985, 70.16144277547484 -0.39172279353767203, 82.09400069781394 0.1877359641251246 C94.02655862015304 0.7671947217879213, 105.48779047244042 2.6453020004640697, 115.52977574982859 6.731835268673542 C125.57176102721675 10.818368536883014, 136.453082189043 17.701042289006892, 142.34591236214288 24.70693557338196 C148.23874253524278 31.712828857757025, 150.89725588413177 40.91856131073375, 150.88675678842793 48.76719497492394 C150.8762576927241 56.61582863911413, 147.9157398623312 65.31991587020154, 142.28291778791984 71.79873755852309 C136.65009571350848 78.27755924684463, 126.82226338415559 83.4713847818233, 117.08982434195971 87.64012510485324 C107.35738529976383 91.80886542788318, 95.74239444320459 95.9289674072822, 83.88828353474457 96.81117949670266 C72.03417262628456 97.69339158612313, 57.211105801844894 95.80208342328243, 45.96515889119965 92.93339764137599 C34.719211980554405 90.06471185946955, 23.719540518076958 85.49159610222836, 16.412602070873106 79.59906480526408 C9.105663623669255 73.7065335082998, 4.327982720020222 65.1095316860827, 2.1235282079765483 57.5782098595903 C-0.08092630406712464 50.04688803309789, -0.14064968302520953 41.577268917052656, 3.1858749986110695 34.411133846309625 C6.5123996802473485 27.244998775566593, 14.601617362588375 19.64453117136696, 22.082676297794222 14.581399435132113 C29.56373523300007 9.518267698897265, 42.964820195078914 5.907584687588707, 48.072228609846164 4.032343428900532 C53.17963702461341 2.157102170212357, 52.11953626108412 2.53572465980144, 52.7271267863977 3.329951883003062 M39.115215316265726 6.51179346997607 C48.210648005213116 2.660558256032807, 62.079536663981905 1.2210180068883763, 74.14592209354355 1.2623815869329533 C86.21230752310518 1.3037451669775304, 100.88939174478115 3.3412189257881555, 111.51352789363555 6.759974950243532 C122.13766404248996 10.178730974698908, 131.28788289478956 15.648477404208155, 137.89073898666996 21.77491773366521 C144.49359507855036 27.901358063122263, 149.7892032250001 35.94722510590098, 151.13066444491795 43.51861692698586 C152.4721256648358 51.09000874807073, 150.93099330536367 59.87852484336698, 145.9395063061771 67.20326866017443 C140.94801930699052 74.52801247698189, 130.8964676511425 82.7747375895539, 121.18174244979853 87.46707982783056 C111.46701724845457 92.15942206610723, 99.11665559557775 94.17688466472403, 87.65115509811325 95.35732208983441 C76.18565460064875 96.5377595149448, 63.35446518365479 96.68497436390177, 52.38873946501151 94.54970437849289 C41.423013746368234 92.41443439308401, 30.01613371920031 88.35156757108743, 21.856800786253594 82.54570217738113 C13.697467853306874 76.73983678367483, 6.620670716533663 67.43825189179779, 3.4327418673311882 59.71451201625509 C0.24481301812871337 51.990772140712394, -0.060189631856992776 43.5072782533893, 2.7292276910387443 36.203262924124935 C5.518645013934481 28.89924759486057, 13.934826175611011 21.00385847943864, 20.16924580470561 15.890420040668886 C26.40366543380021 10.77698160189913, 36.96350034342382 7.253657119941619, 40.135745465606334 5.522632291506412 C43.30799058778885 3.7916074630712044, 38.659331196337405 4.899609224307518, 39.20271653780071 5.504271070057641" stroke="#000000" stroke-width="1" fill="none"></path></g><g><g transform="translate(355.53505067567727 162.40625) rotate(0 -68.08577860258521 79.87248545581011)"><path d="M0.8546586725860832 -0.7712155971676111 C-21.968057122454045 25.621022229020795, -114.30928735993803 132.92174947323898, -137.02621587775647 159.37164606712759 M-0.20612532000057393 1.6646782522927972 C-22.59478397439234 28.12915231570912, -112.96268728534692 134.4639500609568, -135.6942085743975 160.5161865087878" stroke="#000000" stroke-width="1" fill="none"></path></g><g transform="translate(355.53505067567727 162.40625) rotate(0 -68.08577860258521 79.87248545581011)"><path d="M-126.38887313426429 130.8675975347473 C-127.45446346196907 141.78540102097162, -132.9581148106183 147.45477750274438, -133.8042171773594 160.29091293501668 M-125.38609744188332 131.85304445629703 C-130.16814759609326 143.1264765948498, -133.09164508324452 154.94414655886874, -135.27527775793337 160.72562804861926" stroke="#000000" stroke-width="1" fill="none"></path></g><g transform="translate(355.53505067567727 162.40625) rotate(0 -68.08577860258521 79.87248545581011)"><path d="M-110.8245811712388 144.24193183876181 C-116.55631258003216 151.3585059224308, -126.61262165333795 153.1158016924077, -133.8042171773594 160.29091293501668 M-109.82180547885784 145.22737876031155 C-120.7170230583287 151.39520551849134, -129.7256299017747 157.9839651664542, -135.27527775793337 160.72562804861926" stroke="#000000" stroke-width="1" fill="none"></path></g></g><g><g transform="translate(399.96083192567727 161.74609375) rotate(0 51.770194740281454 82.21014783614783)"><path d="M0.6640477392822504 -0.1515771064907312 C17.78008977708717 27.087588108206788, 85.94824725526075 136.51305035812157, 102.89961758591235 164.0842395748943 M0.6407718946505336 0.04012667591683572 C17.780637880659974 27.305095670872056, 85.71725103139568 137.02432816699456, 102.89289818157442 164.57187277878634" stroke="#000000" stroke-width="1" fill="none"></path></g><g transform="translate(399.96083192567727 161.74609375) rotate(0 51.770194740281454 82.21014783614783)"><path d="M79.04909866322144 147.40844360728948 C85.32684041533102 152.27283214024052, 94.7895249966046 157.71513077109333, 103.96618649748154 165.27216993140988 M80.18507678918853 146.20856216446697 C87.48388450475106 151.8145581795026, 92.79889133529065 158.28873020179952, 103.33344843716361 164.37326032443903" stroke="#000000" stroke-width="1" fill="none"></path></g><g transform="translate(399.96083192567727 161.74609375) rotate(0 51.770194740281454 82.21014783614783)"><path d="M96.48089925105845 136.58013207447306 C97.29226765057174 144.97298558729648, 101.22999335666042 153.84728629992185, 103.96618649748154 165.27216993140988 M97.61687737702553 135.38025063165054 C99.69613298022779 144.21621355595968, 99.74337667196626 153.9626224341455, 103.33344843716361 164.37326032443903" stroke="#000000" stroke-width="1" fill="none"></path></g></g><g transform="translate(139.08973817567727 323.34765625) rotate(0 73.19921875 33.23046875000003)"><path d="M80.06812322472501 -0.16558080286881705 C91.45832434633327 -0.35358402173239634, 104.61240481311924 2.167911259294545, 114.59117322496309 5.486726076081979 C124.56994163680693 8.805540892869413, 134.549558559637 14.510255260498862, 139.94073369578808 19.747308097855786 C145.33190883193916 24.98436093521271, 148.06458382325485 31.46799574158934, 146.9382240418695 36.90904310022353 C145.81186426048413 42.350090458857714, 140.35267438654873 47.87033618591196, 133.18257500747595 52.393592249660905 C126.01247562840318 56.91684831340985, 115.02884325285206 61.71605978449385, 103.91762776743288 64.04857948271722 C92.8064122820137 66.38109918094058, 78.69811121983062 66.81768320605498, 66.51528209496085 66.38871043900107 C54.33245297009108 65.95973767194717, 40.588353078703584 64.50272256399822, 30.820653018214266 61.47474288039379 C21.052952957724948 58.44676319678936, 13.052232497617695 53.45441094182634, 7.909081732024944 48.220832337374496 C2.765930966432193 42.98725373292265, -1.0425704187045202 35.58152069908741, -0.03825157534224388 30.073271253682712 C0.9660672680200324 24.565021808278015, 7.014165689737584 19.643695273240574, 13.934994792198601 15.171335664946305 C20.85582389465962 10.698976056652036, 30.594574995404137 5.846176804698727, 41.486723039423865 3.2391136039171045 C52.37887108344359 0.6320504031354823, 71.25066363900699 -0.10931656939058126, 79.28788305631699 -0.4710435397434267 C87.32510247362698 -0.8327705100962721, 86.67950264494799 0.5805414963732016, 89.71003954328384 1.0687517818000316 C92.7405764416197 1.5569620672268616, 97.89272476312493 1.9926595883266558, 97.47110444633208 2.4582181728175527 M99.806943840336 3.5985720708118762 C110.79642751999974 5.2768001811280305, 122.01736397883757 9.74079255660874, 129.53896666732277 13.548712514234868 C137.06056935580796 17.356632471860994, 142.7301942936731 21.267778577794925, 144.93655997124722 26.44609181656864 C147.14292564882135 31.624405055342354, 147.1749142725208 39.26836531493893, 142.77716073276753 44.61859194687715 C138.37940719301426 49.96881857881537, 128.03950860553144 54.86845395839808, 118.55003873272763 58.54745160819796 C109.0605688599238 62.22644925799784, 97.61353514500435 65.85089542394512, 85.84034149594461 66.69257784567642 C74.06714784688488 67.53426026740773, 59.23468518934347 65.37819540343656, 47.91087683836919 63.5975461385858 C36.58706848739491 61.816896873735026, 25.670908719206345 60.29623170807158, 17.897491390098914 56.008682256571795 C10.124074060991482 51.72113280507201, 3.5406132193068593 43.33375153756716, 1.270372863724603 37.87224942958707 C-0.9998674918576533 32.41074732160698, -0.003325401646364412 28.173606412277472, 4.276049256605376 23.239669608691273 C8.555423914857116 18.305732805105073, 17.82962055562117 12.039286455577097, 26.946620813235043 8.268628608069871 C36.06362107084892 4.497970760562646, 46.900135588061424 1.5696211628625085, 58.97805080228862 0.6157225236479178 C71.05596601651582 -0.3381761155666728, 92.96919939883708 2.4164716079870896, 99.41411209859824 2.545236772782328 C105.8590247983594 2.6740019375775663, 97.73432553679663 1.5812878355440272, 97.6475270008556 1.388313512419348 C97.56072846491458 1.1953391892946688, 99.13310466166865 0.5880110593329212, 98.89332088295203 1.3873908340342531" stroke="#000000" stroke-width="1" fill="none"></path></g><g transform="translate(435.26942567567727 327.11328125) rotate(0 72.5546875 35.958984375)"><path d="M105.43098479494807 3.568032663352035 C116.06311385575046 5.7503554596259825, 126.04418022909375 11.118743692044987, 132.4945176119952 16.053643729956345 C138.94485499489664 20.988543767867704, 143.21032495564654 27.227206753994803, 144.13300909235676 33.177432890820185 C145.05569322906697 39.12765902764557, 143.1876088541405 46.385866317814965, 138.03062243225645 51.75500055090865 C132.8736360103724 57.12413478400233, 123.22691970347014 62.04292375725687, 113.19109056105245 65.39223828938226 C103.15526141863475 68.74155282150765, 89.85171197423705 71.23035449769797, 77.81564757775027 71.85088774366099 C65.77958318126349 72.47142098962401, 51.85519148683731 71.77332052166433, 40.97470418213173 69.11543776516034 C30.09421687742615 66.45755500865634, 19.36457961252974 61.0045107029141, 12.53272374951677 55.903591204636996 C5.700867886503798 50.802671706359895, 0.9261389749308945 44.48569276030085, -0.016430995946095095 38.50992077549773 C-0.9590009668230847 32.534148790694616, 1.6474370936917637 25.413438040059305, 6.877303924254832 20.048959295818307 C12.1071707548179 14.684480551577309, 21.329869321352135 9.557930919243114, 31.362769987432316 6.323048310051739 C41.3956706535125 3.088165700860363, 55.26216109431031 1.0407851848979526, 67.07470792073593 0.6396636406700509 C78.88725474716156 0.2385420964421492, 94.95143475634009 3.3067610600981694, 102.23805094598607 3.916319044684329 C109.52466713563206 4.525877029270489, 108.8521876900115 3.74063224785002, 110.79440505861186 4.297011548187008 C112.73662242721221 4.853390848523996, 114.57710297471007 6.536337727890381, 113.89135515758818 7.254594846706258 M85.08419489115609 -0.6001056775860434 C96.34438831375058 -0.13639317364102865, 108.94393151379148 3.4155917061022776, 118.3463917137586 7.414662505468652 C127.74885191372573 11.413733304835025, 137.40960173881012 17.600691866074055, 141.49895609095879 23.394319118612202 C145.58831044310745 29.18794637115035, 145.06946331325656 36.323448858867536, 142.88251782665048 42.17642602069754 C140.6955723400444 48.029403182527545, 135.63617183371926 54.04716185778328, 128.3772831713223 58.51218208959225 C121.11839450892532 62.97720232140122, 110.11823474333207 66.68227817735307, 99.32918585226868 68.96654741155135 C88.54013696120529 71.25081664574962, 75.3112186385019 72.97201354734042, 63.642989824942 72.21779749478188 C51.9747610113821 71.46358144222333, 39.094287226471735 68.04887402000358, 29.31981297090927 64.44125109620005 C19.5453387153468 60.83362817239651, 10.020534406919875 55.91119785240537, 4.996144291567191 50.572059951960654 C-0.02824582378549234 45.232922051515935, -2.6233624686706873 38.72246166291755, -0.8265277212068298 32.40642369353172 C0.9703070262570275 26.090385724145886, 8.395482410049095 17.515482350732064, 15.777152776350334 12.67583213564565 C23.158823142651574 7.836181920559233, 32.632451525319894 5.541278347962077, 43.4634944766006 3.3685224030132233 C54.29453742788131 1.1957664580643694, 74.03716589359036 0.21972764696491254, 80.7634104840346 -0.3607035340474738 C87.48965507447883 -0.9411347150598601, 83.49619980639545 -0.1416236680401918, 83.82096201926599 -0.11406468306109474 C84.14572423213653 -0.08650569808199766, 82.75198020265724 -1.033966310011392, 82.71198376125786 -0.19534962417289137" stroke="#000000" stroke-width="1" fill="none"></path></g><g transform="translate(160.39051942567727 346.341796875) rotate(0 47 12.5)"><text x="0" y="18" font-family="sans-serif" font-size="20px" fill="#000000" text-anchor="start">machine A</text></g><g transform="translate(458.44520692567727 350.5625) rotate(0 47.5 12.5)"><text x="0" y="18" font-family="sans-serif" font-size="20px" fill="#000000" text-anchor="start">machine B</text></g><g transform="translate(325.89833192567727 103.65625) rotate(0 56.5 12.5)"><text x="0" y="18" font-family="sans-serif" font-size="20px" fill="#000000" text-anchor="start">parent SFC</text></g><g transform="translate(945.0184755067578 68.74598817567568) rotate(0 75.5625 48.44140625)"><path d="M69.21002596631251 0.3474826306302887 C80.63196540971033 -1.1537449071800907, 95.5718718518479 0.8575813959770779, 106.48574452765796 3.734648531851306 C117.39961720346801 6.611715667725534, 127.5535920995549 11.64146126531718, 134.6932620211728 17.60988544587566 C141.8329319427907 23.578309626434137, 147.25886867427414 31.95325258988507, 149.3237640573654 39.54519361520217 C151.38865944045665 47.13713464051928, 150.8285439962512 55.95628510570461, 147.0826343197204 63.16153159777828 C143.3367246431896 70.36677808985195, 135.59399399731242 77.4423378349447, 126.84830599818063 82.7766725676442 C118.10261799904885 88.1110073003437, 106.01462115456528 92.9432790831267, 94.60850632492966 95.16753999397532 C83.20239149529405 97.39180090482395, 69.91190894868828 97.73226796269168, 58.41161702036697 96.12223803273594 C46.911325092045665 94.51220810278019, 34.539269522630235 90.7456912235137, 25.606754755001845 85.50736041424085 C16.674239987373454 80.269029604968, 8.89257849301654 71.88916038442937, 4.8165284145966325 64.69225317709883 C0.7404783361767242 57.495345969768294, -0.5650196991762257 50.00507935899225, 1.150454284482393 42.32591717025762 C2.865928268141012 34.64675498152299, 8.056829565666153 24.94018103151907, 15.109372316548345 18.617280044691057 C22.161915067430538 12.294379057863043, 33.37793008341642 7.634446147151422, 43.46571078977554 4.388511249289536 C53.55349149613466 1.1425763514276497, 69.29374923055454 -0.28215265771803766, 75.63605655470305 -0.8583293424802605 C81.97836387885155 -1.4345060272424832, 81.68201660334348 -0.17082241843171997, 81.5195547346666 0.9314511407161987 M58.67277438991704 -0.2793809693611209 C69.68034783176714 -2.507308326372191, 85.95698896467616 -1.4374652643916668, 97.68329389301603 1.0090109241159837 C109.4095988213559 3.455487112623634, 120.5455746327855 9.039991679848004, 129.03060395995627 14.399476161684781 C137.51563328712703 19.758960643521558, 145.2990318559751 25.841880533086737, 148.5934698560406 33.16591781513664 C151.8879078561061 40.48995509718654, 151.0080712724361 50.69953185709153, 148.79723196034917 58.343699853984184 C146.58639264826223 65.98786785087684, 142.56830508787456 73.19038498232122, 135.32843398351906 79.03092579649258 C128.08856287916356 84.87146661066394, 116.53845423314289 90.22495402032916, 105.35800533421617 93.38694473901239 C94.17755643528946 96.54893545769562, 80.1482748151124 99.00910262523927, 68.24574058995874 98.00287010859199 C56.34320636480509 96.99663759194472, 43.90025173994084 91.66509029525149, 33.94279998329426 87.34954963912878 C23.985348226647673 83.03400898300607, 14.126151583979219 78.7765777612024, 8.501030050079237 72.10962617185574 C2.875908516179255 65.44267458250907, -0.00991113970174004 55.26074171929248, 0.19207077989436527 47.347840103048775 C0.3940526994904706 39.434938486805066, 3.9425699551917726 31.131807541840622, 9.712921567655869 24.632216474393484 C15.483273180119966 18.132625406946346, 26.31752665072159 12.202386341636021, 34.81418045467894 8.350293698365938 C43.31083425863629 4.498201055095855, 56.731655702858454 2.534143574621691, 60.69284439139998 1.519660614772988 C64.65403307994151 0.5051776549242852, 58.46623504273261 1.6090439679266404, 58.58131258592811 2.263395939273721" stroke="#000000" stroke-width="1" fill="none"></path></g><g><g transform="translate(997.6903505067578 162.33192567567568) rotate(0 -68.4333163522789 79.21750621108804)"><path d="M0.4464252915233373 -0.20475287698209288 C-22.42946445085108 26.627873175715404, -113.76740310527383 133.4166063680003, -136.5042498026043 159.99605973698198 M-0.4092432526219636 -1.56104731480591 C-23.558889561342074 24.85836466500846, -114.64969915722497 131.44388263523268, -137.3130579960812 158.03575241495855" stroke="#000000" stroke-width="1" fill="none"></path></g><g transform="translate(997.6903505067578 162.33192567567568) rotate(0 -68.4333163522789 79.21750621108804)"><path d="M-127.14940271786614 129.22488846890928 C-129.30180944190823 140.3356642296386, -134.31761302586142 152.08429470677538, -137.83843445939013 157.58849202957936 M-126.97824152167155 129.34698997792157 C-129.74178595443593 134.9611903259969, -131.92111021315478 141.86064654188942, -136.94632519290784 158.594894396374" stroke="#000000" stroke-width="1" fill="none"></path></g><g transform="translate(997.6903505067578 162.33192567567568) rotate(0 -68.4333163522789 79.21750621108804)"><path d="M-111.54433134062842 142.55161911438853 C-119.24396975414894 148.8883001566883, -129.91802741956593 155.8047817609053, -137.83843445939013 157.58849202957936 M-111.37317014443383 142.6737206234008 C-117.39714218101486 145.3388260632511, -122.92682639002024 149.37707494830133, -136.94632519290784 158.594894396374" stroke="#000000" stroke-width="1" fill="none"></path></g></g><g><g transform="translate(1042.1161317567578 161.67176942567568) rotate(0 50.72336558608811 81.94208105572966)"><path d="M-0.20475287698209288 -0.4261248026043176 C17.129826300715408 27.019320166731877, 85.92637199300032 137.3722657845666, 103.00777848698199 165.1190951075405 M-1.56104731480591 -1.2349329960811883 C15.36031779000846 26.283999831729258, 83.95364826023268 137.1449613584609, 101.04747116495855 164.7043537142407" stroke="#000000" stroke-width="1" fill="none"></path></g><g transform="translate(1042.1161317567578 161.67176942567568) rotate(0 50.72336558608811 81.94208105572966)"><path d="M76.77116199030749 147.68932425798135 C82.82946830510652 150.54548113886233, 89.49564614193791 153.70027018659547, 100.60021077957936 162.99829107510857 M76.89326349931977 145.6512657898407 C81.90847653100705 150.0839539121885, 88.25433667492739 155.1798323318323, 101.606613146374 165.04693861945532" stroke="#000000" stroke-width="1" fill="none"></path></g><g transform="translate(1042.1161317567578 161.67176942567568) rotate(0 50.72336558608811 81.94208105572966)"><path d="M94.21758199728018 136.88458310762786 C96.53558542432887 142.0522720639375, 99.42126445909426 147.54836155951148, 100.60021077957936 162.99829107510857 M94.33968350629246 134.8465246394872 C95.23744949434571 141.76182700205393, 97.52671476896667 149.369994905564, 101.606613146374 165.04693861945532" stroke="#000000" stroke-width="1" fill="none"></path></g></g><g transform="translate(781.498944256758 323.6164484797298) rotate(0 73.19921875 33.23046875000003)"><path d="M10.162901483033856 15.459540443678248 C10.162901483033856 15.459540443678248, 10.162901483033856 15.459540443678248, 10.162901483033856 15.459540443678248 M10.162901483033856 15.459540443678248 C10.162901483033856 15.459540443678248, 10.162901483033856 15.459540443678248, 10.162901483033856 15.459540443678248 M-0.5127537933728465 32.025105055992235 C7.418085894661967 24.66225336490262, 14.833376824298625 15.593401846587525, 17.053791692554263 10.859708737476923 M1.243718130179607 30.681326856475998 C5.876850161023367 27.175319671951662, 10.501461876827783 21.167693258259575, 19.164532494805066 12.428974185965219 M1.7847244974558052 35.2594280090473 C8.395113765791365 29.66656996437195, 16.099528456189514 20.232496363825284, 25.384743733921503 7.484562109762397 M3.7814957352687415 35.403848477295725 C10.226879700011585 26.91303953653302, 17.577941313841585 18.082807680932692, 26.775905882598316 8.272640888185766 M4.543382757707036 37.49215294039644 C11.347714315291501 31.841150430324497, 18.93430016057806 23.30988078952598, 34.373103772055075 7.230925370498184 M4.563106164699889 39.56073189238853 C15.601084131075282 29.164095145494134, 24.908061262734083 17.15478728500611, 34.594033237311706 5.717142773351256 M6.875761949965099 42.8079867737231 C18.44548174552981 31.065104220922088, 32.01453566641025 13.420083310273018, 40.5284700575677 3.6761498090360725 M7.260996386916677 42.45949286332849 C16.144202517055724 33.507503606886075, 25.87690378635449 22.038092086059997, 39.656192252917336 5.954241531204101 M10.150262411814257 47.879527057710796 C17.351186570453198 34.99192944721045, 29.822737698105783 25.649514182918306, 47.334095361024666 4.774429438614003 M8.810308682862743 46.97307683918974 C16.949446809144714 36.78660345048398, 26.6719537629315 26.807345531488377, 45.32390108083986 4.686330637872867 M11.304407739876737 52.04860028693406 C24.753857640116074 38.12538576076595, 37.3393791510649 21.604798555815066, 50.59197377001023 3.2022680579154503 M11.31589453001969 52.52744727743743 C21.637098984046673 37.84590279153667, 33.23143137990853 25.2688507908994, 52.22175512702292 4.378152417431654 M13.311112166689337 52.57753735896254 C27.180144396104005 34.76283625088584, 45.223421914118575 19.14913586059094, 57.70428166013713 4.175688831292209 M14.112331979283692 54.25911110103184 C24.513163040864946 39.653178274494735, 36.172814280681784 28.4525815101065, 58.11261802293862 2.980257622122881 M17.307118038874272 53.29644601837078 C33.10377213453809 34.81821220289384, 49.77237739048266 19.88607134528293, 62.20329089798011 1.2297672272049844 M18.486113133136335 54.568641142438146 C29.17376880892347 41.680184898901715, 41.25545138661607 28.299002619951917, 64.02128482852109 1.6147883707978785 M23.091086107044283 58.11861505451058 C36.63249011284977 37.4773478850383, 54.88387290989179 21.701865896473805, 70.44039660915192 1.318807660005568 M21.76748443554974 56.54233034139876 C38.0606204452645 36.99554801890997, 54.19325936500833 18.358242841102914, 69.51725980024244 2.5819047906990633 M26.37321358378364 56.593595141065414 C40.08132993860464 42.49978250944409, 55.75690257667003 25.070427925985065, 77.42814843921784 -0.9135427320681018 M25.17381472996755 58.41152258448779 C40.29780732017405 40.46935453724045, 57.44160567976549 23.75875261183939, 76.15053765202734 -0.4638512045450014 M30.08849802768608 59.98853715694155 C42.85320109840765 47.253819694566744, 54.526634825070744 35.2207511457744, 82.24898317681905 1.7394304560040794 M28.716609143342872 59.54020102600212 C42.10849311051863 45.33457164100032, 56.08236044080827 29.718880889542625, 81.45408617837634 1.2664186279764138 M32.99029637234536 63.59598260604521 C51.573891109038655 43.58610716945532, 67.64130814799242 20.07417276247272, 83.83361018853037 2.789365192682837 M32.38881811512885 61.639028507738615 C47.024511009888954 47.72551352997991, 60.14160930081875 32.21649281637666, 86.31598168922363 1.3440751571146592 M36.24388395534573 63.0416540370599 C51.56250946696084 47.72046965338927, 62.238382704639235 33.41678198418696, 92.30609821592651 2.398290071428846 M38.352146426269094 62.979387978771385 C49.646457048319625 49.377031883888506, 63.21521592519653 33.045867483656465, 90.9182458070033 1.3746589392210353 M41.395777431290426 63.611083784114626 C51.98197928302093 51.77584288907532, 63.63580073438908 39.00323998271457, 96.95319828861075 2.705253051371159 M41.500126112226226 64.62626123612007 C62.955880157333674 41.228173439899955, 81.76691464138955 18.279836179413095, 96.299918379678 2.2307689588152186 M46.93547088776373 66.29327564589286 C60.94262350817038 47.95223545024466, 73.53898999487782 33.4881416888946, 100.13002081118631 4.624692716638769 M47.6136025789439 64.38814060385877 C66.48116759655916 41.684524439667726, 86.53320147040029 18.971181812793155, 100.85648456771034 3.7566838879168287 M52.95264070037835 66.61675278674642 C67.60446377854076 50.08140871226962, 80.41011520097442 31.97033874741866, 105.16571265022797 2.6448095356923957 M50.6116894578942 66.55932683422992 C66.26557017842794 47.02668736813861, 81.96307580254731 29.4022580326793, 105.83930193103446 3.4729833453772088 M55.66705873570907 66.42909067513598 C74.84817471749577 43.85364611607231, 92.39074352929735 22.622043206818425, 108.36460296033897 4.418323342661068 M56.67543180901128 65.60571204608483 C67.9401139030324 52.854296843513325, 79.10660522759972 39.59807159497443, 109.95049625511297 5.073555378216014 M62.77367914835913 66.2423841451906 C82.30038025953651 43.281534929301856, 103.66142365717155 19.22653437225076, 114.25582124213203 6.315554176896576 M62.18664291775776 67.41649678644318 C76.53891128066641 49.57311407507348, 90.4811414619848 31.454080956996123, 114.18632960891797 5.884927301175658 M65.34831546793177 68.03161865603926 C84.35580863950352 45.600197178757426, 105.07243849416102 21.273120421343485, 118.81109248718192 8.713374381859616 M65.22733138209625 68.00881128982456 C84.11997902667804 47.2041129772243, 100.32633226492135 27.371988318073235, 117.64874548988362 7.061467795607463 M72.40937671499225 67.27833197091994 C85.35384846449881 52.946095190069094, 96.44875844827098 35.24008190410548, 119.44588300408242 9.585966086456452 M70.7351872284514 66.4776271573576 C91.35424359459154 44.675254645400585, 110.9603212934128 21.811958248172537, 121.14026464996306 9.082394390808318 M75.60689516914383 64.07079079896161 C91.33451316761742 50.48021656557351, 103.0484594283218 33.804618649809896, 124.26901847642723 10.057902044593312 M76.78635967978582 66.00218399856189 C89.55002908641015 53.478760642428426, 100.55449001294276 41.19198017591192, 125.00735315360937 12.211104303575077 M83.12820345599923 63.902362054516104 C94.70332084550321 49.75481848348302, 108.79736048301027 35.66668853705803, 130.02018396281014 15.466645635176477 M83.09488424257162 65.55061069067987 C97.94369886177407 48.49041259323924, 110.89632026375092 32.60030884580062, 128.6716723777757 13.463924438204643 M88.25967066314273 63.71517453626687 C103.77493278589422 44.81616233499366, 123.67397358552026 27.022503616268445, 134.0074238968249 14.425050862112172 M89.16816882275246 65.82983705778564 C103.87447095283368 46.55574632847608, 120.76347055745596 28.776013100830482, 131.1613290119152 14.57886138649387 M94.69996622416804 65.9814572481202 C108.9599563226521 49.65756925756051, 119.15546157014967 34.08014563392133, 136.0446420870652 15.883862354306665 M94.21400760978142 64.27318219167609 C106.52236414305861 51.08883959814049, 119.35332919770423 36.897424416138506, 136.64212505798093 16.984351427739647 M99.80967797665947 62.25662023875954 C109.79640811308455 53.34132305449464, 122.22639835667228 41.64395475985127, 138.38910171712487 20.194215365666196 M99.98394913460218 64.49968529142531 C113.71811704884655 47.99518502280802, 128.15234540917865 31.932980035674944, 138.9488078304261 19.76801052873884 M107.92457604622973 63.26059292253668 C117.330311312411 50.327559637067964, 127.05868397487268 42.45977704032447, 141.7107482586261 22.43426451576532 M106.68031015368683 63.30169398427571 C113.7547931077583 53.985583149828535, 122.70009630026891 45.174906967216316, 141.14814286923223 22.909513084456634 M110.26128993349154 65.67619533880344 C119.7205995330597 57.147916779066655, 127.54229579931257 46.222075068096615, 143.5902997611247 27.92458798761922 M110.45560273600746 65.34948558496973 C122.60396690675229 50.88290435002723, 134.68205713297323 37.868800638023906, 142.63075422981456 25.70224611579883 M117.38357589093424 61.40041360901556 C129.2826288968883 49.81556691382521, 137.96685420564052 42.197385220642204, 143.92797947523331 31.101912070579687 M118.4725516399128 61.34879255285374 C124.20040498798615 54.208503680143565, 130.71611583734543 48.69595576810178, 146.11360710614508 31.533283812507847 M128.14592799522754 58.75760650386146 C134.5261786676356 48.2831344881738, 140.48201852479232 41.85037726003556, 146.78554711353632 35.78922493833018 M127.44145538543191 57.16025905900678 C132.8262711803981 51.271568962294396, 138.15916618179818 43.851024318929326, 146.07578909166756 35.05975131115777" stroke="#868e96" stroke-width="0.5" fill="none"></path><path d="M76.09135759629716 -0.19275238059463362 C87.52170478778629 -0.7027767479795456, 101.34196837235237 1.5283586684666717, 111.57126182016515 4.4990854000095055 C121.80055526797793 7.46981213155234, 131.77016290071347 12.70531451472937, 137.46711828317387 17.63160800866237 C143.16407366563428 22.557901502595367, 146.29890071562676 28.5744705439887, 145.75299411492756 34.0568463636075 C145.20708751422836 39.53922218322629, 140.59511141258187 45.70631603314375, 134.19167867897866 50.525862926375154 C127.78824594537545 55.34540981960656, 117.84436618341536 60.26478358814163, 107.33239771330828 62.9741277229959 C96.8204292432012 65.68347185785018, 83.12070706684136 66.99451977786568, 71.11986785833616 66.78192773550077 C59.11902864983096 66.56933569313587, 45.79064334367122 64.62741807806911, 35.32736246227705 61.6985754688065 C24.864081580882882 58.76973285954389, 14.063205997205184 54.113789267499875, 8.340182569971148 49.20887207992511 C2.617159142737113 44.30395489235034, 0.6924271870286169 37.88591783386296, 0.9892218988728416 32.269072343357884 C1.2860166107170663 26.65222685285281, 3.8868732899436056 20.197629094444828, 10.120950841036496 15.50779913689465 C16.355028392129388 10.817969179344473, 27.670032311644547 6.741063287120248, 38.39368720543018 4.130092598056816 C49.11734209921582 1.5191219089933834, 66.4678415062279 0.5735357025347572, 74.4628802037503 -0.15802499748594556 C82.4579189012727 -0.8895856975066483, 82.6150955426857 -0.6078725429638041, 86.36391939056463 -0.2592716020674004 C90.11274323844357 0.08932933882900329, 97.11334994793494 1.356930380923595, 96.95582329102395 1.9335806478924766 M50.83580092976614 2.0303372223627107 C61.9041386210999 -0.01804745092739246, 78.19450300253926 0.714639515922905, 90.05888471561855 1.6986253113990273 C101.92326642869783 2.6826111068751497, 113.08383850128942 4.090604924224195, 122.02209120824182 7.934251995219444 C130.96034391519422 11.777899066214694, 139.95090234647373 19.133445349777766, 143.68840095733293 24.760507737370524 C147.42589956819214 30.387570124963283, 147.19695836378966 36.42329506871957, 144.44708287339705 41.69662632077599 C141.69720738300444 46.96995757283241, 135.17105619395315 52.35017370944487, 127.1891480149772 56.40049524970905 C119.20723983600126 60.45081678997324, 108.36549213904829 64.43575694158112, 96.55563379954143 65.99855556236109 C84.74577546003457 67.56135418314106, 68.20466732042756 67.11911295390048, 56.32999797793609 65.77728697438886 C44.45532863544462 64.43546099487723, 34.15457225142673 61.69258226351323, 25.307617744592626 57.9475996852913 C16.460663237758524 54.20261710706937, 7.1947529372117724 48.667311002366226, 3.2482709369314904 43.307391505057296 C-0.6982110633487921 37.94747200774837, -1.135313140825128 31.000101353711774, 1.6287257429109303 25.78808270143773 C4.392764626646988 20.576064049163687, 11.576646591358937 16.283626681666867, 19.83250423934784 12.035279591413033 C28.088361887336745 7.786932501159199, 45.81152486745969 2.023965743667403, 51.163871630844355 0.2980001599147215 C56.51621839422902 -1.4279654238379595, 51.84541198150737 1.477695919292793, 51.94658481965584 1.6794860888969474 C52.04775765780431 1.8812762585011018, 51.38216620444341 0.94403960591329, 51.77090865973516 1.5087411775396475" stroke="#000000" stroke-width="1" fill="none"></path></g><g transform="translate(1077.4247255067578 327.0389569256757) rotate(0 72.5546875 35.958984375)"><path d="M78.53780386790817 -0.721214377129975 C89.75542207866665 -0.8048778225942179, 103.3222884471811 2.40304966456619, 113.21620532082767 5.843462293513319 C123.11012219447424 9.283874922460448, 132.70251149084407 14.602417404255235, 137.90130510978761 19.9212613965528 C143.10009872873115 25.240105388850367, 145.3676977026009 31.728290491341742, 144.40896703448885 37.75652624729871 C143.4502363663768 43.78476200325568, 138.76750644657645 50.909253971338686, 132.14892110111526 56.0906759322946 C125.53033575565406 61.27209789325052, 115.38466904118638 66.068040875233, 104.69745496172169 68.84505801303419 C94.010240882257 71.62207515083539, 80.03982402323135 73.29114219029253, 68.02563662432712 72.75277875910176 C56.01144922542289 72.21441532791098, 42.62215884674324 68.91438798723968, 32.612330568296336 65.61487742588956 C22.602502289849433 62.31536686453944, 13.361880624828324 58.38959699357163, 7.9666669536457135 52.955715391001064 C2.5714532824631045 47.5218337884305, -0.3631399964000318 39.14367663393931, 0.24104854120068353 33.011587810466175 C0.8452370788013989 26.87949898699304, 5.007554005201388 21.153476264978732, 11.591798179250006 16.163182450162257 C18.176042353298623 11.172888635345782, 29.02555298876625 5.789948529194689, 39.746513585492394 3.0698249215673314 C50.46747418221854 0.3497013139399736, 67.83681717659947 0.0453017342942085, 75.91756175960688 -0.15755919560189113 C83.9983063426143 -0.36042012549799074, 84.54376916117866 1.270772191669311, 88.23098108353688 1.8526593421907336 C91.91819300589509 2.434546492712156, 98.28361692571406 3.001230346172646, 98.0408332937562 3.333763707526643 M40.970773920490174 4.272169343015065 C50.69984818122999 1.2919506673294623, 66.11325567676934 -1.223534384512434, 77.87091282401484 -0.8514115124293866 C89.62856997126033 -0.4792886403463393, 101.38083601864584 3.1031719556922845, 111.51671680396315 6.504906575513349 C121.65259758928046 9.906641195334414, 132.90792755723223 14.318496382038756, 138.68619753591872 19.558996206497 C144.46446751460522 24.799496030955243, 146.93288766885763 31.73485602486782, 146.18633667608208 37.94790552226281 C145.43978568330652 44.16095501965779, 140.74278237629403 52.023189290057594, 134.20689157926546 56.837293190866916 C127.67100078223689 61.65139709167624, 117.74894591272496 64.07958876976082, 106.97099189391062 66.83252892711874 C96.19303787509628 69.58546908447667, 81.70431127015881 73.46771045729656, 69.5391674663794 73.35493413501447 C57.37402366259999 73.24215781273239, 44.16635704007894 69.59214075919732, 33.98012907123415 66.15587099342625 C23.793901102389363 62.719601227655176, 14.141778845458333 57.82916708963839, 8.421799653310643 52.737315540388025 C2.7018204611629537 47.64546399113766, -0.9342603495786861 41.485121565246345, -0.33974608165198106 35.60476169792408 C0.254768186274724 29.72440183060182, 5.812370222690678 22.630580739034222, 11.988885260870873 17.455156336454444 C18.16540029905107 12.279731933874665, 31.947504559736938 6.905223702357706, 36.71934414742919 4.552215282445417 C41.491183735121446 2.199206862533128, 39.99700455881183 3.300433934354087, 40.61992278702439 3.33710581698071 C41.242841015236955 3.373777699607333, 39.885755577547 4.010385194714051, 40.45685351670457 4.772246578205156" stroke="#000000" stroke-width="1" fill="none"></path></g><g transform="translate(802.5458192567578 346.2674725506757) rotate(0 47 12.5)"><text x="0" y="18" font-family="sans-serif" font-size="20px" fill="#000000" text-anchor="start">machine A</text></g><g transform="translate(1100.6005067567578 350.4881756756757) rotate(0 47.5 12.5)"><text x="0" y="18" font-family="sans-serif" font-size="20px" fill="#000000" text-anchor="start">machine B</text></g><g transform="translate(968.0536317567578 103.58192567567568) rotate(0 56.5 12.5)"><text x="0" y="18" font-family="sans-serif" font-size="20px" fill="#000000" text-anchor="start">parent SFC</text></g><g transform="translate(563.529947916669 101.91979870495499) rotate(0 123 12)"><text x="0" y="19" font-family="monospace" font-size="20px" fill="#000000" text-anchor="start">emit({ type: "ANY" })</text></g><g transform="translate(224.98426942567727 10) rotate(0 147 17.5)"><text x="0" y="25" font-family="sans-serif" font-size="28px" fill="#000000" text-anchor="start">old virtual DOM tree</text></g><g transform="translate(863.1452265843436 10.58991777337684) rotate(0 152.5 17.5)"><text x="0" y="25" font-family="sans-serif" font-size="28px" fill="#000000" text-anchor="start">new virtual DOM tree</text></g><g transform="translate(617.2753447994862 633.9621913627559) rotate(0 321 25)"><text x="0" y="18" font-family="sans-serif" font-size="20px" fill="#000000" text-anchor="start">this wasn't a targeted event, but only the machines that "listen"</text><text x="0" y="43" font-family="sans-serif" font-size="20px" fill="#000000" text-anchor="start"> to this event rerender!</text></g><g><g transform="translate(195.230152027028 389.6510768581084) rotate(0 -47.356165578204894 63.725637068733135)"><path d="M0.24684453941881657 -0.5672377143055201 C-15.84368549574096 20.27158908624467, -79.69587339255608 104.96623791699692, -95.60311370908792 126.18307260634106 M1.4845358323026447 0.8891610809694974 C-14.245577361052153 22.429358649768727, -79.86798082134335 106.82854292638996, -96.19686698871243 128.01851185177182" stroke="#000000" stroke-width="1" fill="none"></path></g><g transform="translate(195.230152027028 389.6510768581084) rotate(0 -47.356165578204894 63.725637068733135)"><path d="M-88.00607548725242 100.22400941547201 C-91.31049554791475 111.73135986095058, -93.8492408301438 119.09946966392509, -97.53312224666166 129.64095538434302 M-87.28875290580476 100.10233847551243 C-90.51008972369158 110.44572934840416, -92.72222457060687 120.27223459738488, -96.8289168295874 128.34064297609692" stroke="#000000" stroke-width="1" fill="none"></path></g><g transform="translate(195.230152027028 389.6510768581084) rotate(0 -47.356165578204894 63.725637068733135)"><path d="M-71.77588761186837 112.78191544775207 C-81.34117699644897 119.57150796108752, -90.02043330301967 122.18847372149575, -97.53312224666166 129.64095538434302 M-71.05856503042071 112.66024450779248 C-79.92894177659407 118.7320988613148, -87.79872595856253 124.18106829501721, -96.8289168295874 128.34064297609692" stroke="#000000" stroke-width="1" fill="none"></path></g></g><g transform="translate(10 517.6757812499993) rotate(0 84.86592060810813 32.96558277027026)"><path d="M65.89079362931575 1.385333976210795 C77.89788990212645 -0.12045254807245231, 93.6321217016098 0.13726155634327175, 106.71349667711577 1.508454360748857 C119.79487165262174 2.8796471651544424, 134.42120027292862 6.085069509973552, 144.3790434823515 9.612490802644306 C154.3368866917744 13.13991209531506, 162.45368290544607 17.893281079051366, 166.4605559336531 22.672982116773376 C170.46742896186012 27.452683154495386, 171.00826695979612 33.26064254796928, 168.42028165159365 38.29069702897637 C165.8322963433912 43.32075150998345, 159.145136953293 48.76292993303657, 150.93264408443832 52.85330900281589 C142.72015121558366 56.943688072595215, 131.32762273862937 60.8069768864786, 119.14532443846574 62.8329714476523 C106.9630261383021 64.858966008826, 91.24551634694257 65.24398781423922, 77.83885428345647 65.00927636985809 C64.43219221997037 64.77456492547695, 49.98264760545937 64.10244169726033, 38.70535205754918 61.42470278136551 C27.428056509638985 58.74696386547069, 16.571589097731394 53.61804140628913, 10.175080995995302 48.94284287448915 C3.7785728942592103 44.267644342689174, 0.45644473852042944 38.49212865090095, 0.3263034471326307 33.37351159056565 C0.196162155744832 28.254894530230345, 3.4063854340540693 22.746814200474187, 9.39423324766851 18.23114051247734 C15.38208106128295 13.71546682448049, 25.176685819509963 9.313336718640047, 36.25339032881927 6.279469462584554 C47.33009483812858 3.2456022065290626, 67.77351438267317 1.0596247871621731, 75.85446030352438 0.027936976144388836 C83.93540622437558 -1.0037508348733954, 84.49648260346493 -0.5256951545375917, 84.7390658539265 0.0893425964778487 M98.52030773123865 1.8021981722479126 C110.92740111851124 2.1419918279411867, 124.97264794346998 3.0456620300347326, 135.52964838324178 6.212856052485016 C146.08664882301358 9.3800500749353, 156.02861589412186 15.844242909055513, 161.86231036986942 20.80536230694961 C167.69600484561698 25.76648170484371, 171.5638742086647 31.221839129316905, 170.53181523772713 35.979572439849605 C169.49975626678955 40.737305750382305, 163.16973301643483 45.219100893049244, 155.6699565442439 49.35176217014582 C148.17018007205294 53.48442344724239, 137.16254778421288 58.02891698960944, 125.53315640458146 60.77554010242904 C113.90376502495005 63.52216321524864, 98.81832749688554 65.52990893819756, 85.89360826645539 65.8315008470634 C72.96888903602523 66.13309275592923, 59.56799734753376 64.64585683537643, 47.98484102200049 62.58509155562404 C36.401684696467214 60.524326275871644, 24.4873069326311 57.86128749864346, 16.394670313255745 53.46690916854902 C8.302033693880388 49.07253083845458, 1.0819685406428594 41.8046645330287, -0.5709786942516502 36.2188215750574 C-2.2239259291461595 30.632978617086096, 1.4169735404911918 24.41274554496608, 6.476986903888687 19.951851420721205 C11.537000267286182 15.490957296476331, 20.057745444486663 12.788593433214032, 29.78910148613332 9.453456829588152 C39.520457527779975 6.118320225962272, 53.458913010752056 1.55587093473262, 64.86512315376864 -0.05896820103407663 C76.27133329678522 -1.6738073368007733, 92.5345329067411 -0.28570705130968044, 98.22636234423281 -0.23557798501202853 C103.91819178172452 -0.18544891871437663, 99.13841442696673 -0.5592116530131689, 99.01609977871891 0.2418061967518348" stroke="#000000" stroke-width="1" fill="none"></path></g><g transform="translate(47.247466216217106 538.5610219594596) rotate(0 48.5 12.5)"><text x="0" y="18" font-family="sans-serif" font-size="20px" fill="#000000" text-anchor="start">machine C</text></g><g><g transform="translate(843.4666385135149 391.4039273648652) rotate(0 -48.126476020298696 62.68270551648786)"><path d="M0.9939147558063268 -1.140822472795844 C-15.147136486209227 19.788828192691177, -80.56453484464085 105.00928433259412, -96.7129907955187 126.50623350577158 M1.5218254506122322 0.1763265030551704 C-14.503708971747427 20.79837877826099, -81.20442427650674 104.08651873441806, -97.77477749120953 125.30064581392992" stroke="#000000" stroke-width="1" fill="none"></path></g><g transform="translate(843.4666385135149 391.4039273648652) rotate(0 -48.126476020298696 62.68270551648786)"><path d="M-90.21760771453609 95.76142447349496 C-91.56714539198653 106.05731612728641, -92.28539087757073 112.8513986196727, -96.06075326968494 126.96384302771378 M-89.31562893215795 97.17922864855147 C-91.21311019560444 105.56320291003041, -95.2189778350129 114.33781742664137, -98.05929686837408 125.26579070429045" stroke="#000000" stroke-width="1" fill="none"></path></g><g transform="translate(843.4666385135149 391.4039273648652) rotate(0 -48.126476020298696 62.68270551648786)"><path d="M-74.1303777900867 108.50195176806716 C-80.5833708162683 114.9673859850108, -86.30650992144353 117.79776658053291, -96.06075326968494 126.96384302771378 M-73.22839900770856 109.91975594312368 C-79.9884656689363 114.2249553477217, -88.975508023189 119.0546525161287, -98.05929686837408 125.26579070429045" stroke="#000000" stroke-width="1" fill="none"></path></g></g><g transform="translate(658.2364864864876 519.4286317567564) rotate(0 84.86592060810813 32.96558277027026)"><path d="M72.79929048406255 1.1443450310645105 C85.30796621335578 -0.10957844467813804, 103.01694825558639 0.6579398244123791, 115.49625319647257 2.1953456409036143 C127.97555813735875 3.7327514573948495, 139.17559247210608 6.436054858750861, 147.67512012937965 10.368779930011922 C156.17464778665322 14.301505001272982, 163.24571320624855 20.610143485447985, 166.49341914011399 25.79169606846998 C169.74112507397942 30.97324865149198, 170.56207060469566 36.51843425775727, 167.16135573257228 41.45809542814389 C163.7606408604489 46.39775659853051, 155.29174938636632 51.65007796142389, 146.08912990737372 55.429663090789724 C136.88651042838111 59.20924822015556, 124.52101998704755 62.61379193125066, 111.94563885861668 64.13560620433888 C99.3702577301858 65.65742047742711, 83.88324422559033 65.39383802501193, 70.63684313678846 64.5605487293191 C57.39044204798659 63.72725943362626, 42.91657863588979 62.025975259668726, 32.46723232580546 59.135870430181875 C22.017886015721132 56.24576560069502, 13.228168938339092 51.884292870463895, 7.940765276282477 47.219919752397985 C2.6533616142258616 42.555546634332075, -0.0007057360181595973 36.52840011921264, 0.7428103534657708 31.149631721786434 C1.4863264429497014 25.770863324360228, 5.364120866614287 19.497619304350387, 12.40186181318606 14.947309367840749 C19.439602759757832 10.39699943133111, 32.191218741826525 6.177796451250977, 42.9692560328964 3.8477721027286016 C53.74729332396628 1.5177477542062259, 70.73405293197148 1.6373981941386777, 77.07008555960533 0.9671632767064935 C83.40611818723919 0.2969283592743093, 80.71960035075743 -0.6429609011655846, 80.98545179869951 -0.17363740186450372 M107.94927250007464 0.8974894371112327 C120.62178835549317 1.889291028154355, 134.20112387408048 6.879886129052734, 143.78703234389522 10.601553763169864 C153.37294081370996 14.323221397286995, 161.23602184773068 18.44971785949732, 165.46472331896308 23.22749524181401 C169.69342479019548 28.005272624130704, 171.31515975956484 34.06891442842675, 169.15924117128958 39.268218057070015 C167.00332258301432 44.46752168571328, 160.97494814539465 50.36281694426909, 152.5292117893116 54.423317013673575 C144.08347543322856 58.48381708307806, 130.68023372094575 61.61420076915357, 118.48482303479125 63.63121847349693 C106.28941234863676 65.64823617784029, 92.82317195732864 66.77692376448611, 79.35674767238466 66.52542323973371 C65.89032338744067 66.27392271498131, 49.2346780270639 65.27468185546252, 37.686277325127385 62.122215324982534 C26.13787662319087 58.96974879450255, 16.585860547502755 52.429431868498526, 10.066343460765566 47.61062405685381 C3.5468263740283765 42.79181624520909, -1.2990810217606945 37.95150833733129, -1.4308251952957534 33.20936845511425 C-1.5625693688308122 28.467228572897216, 2.823896415855434 23.52698193633846, 9.275878419555212 19.15778476355159 C15.727860423254992 14.78858759076472, 26.274486051855547 10.13293236683903, 37.281066826902915 6.99418541839303 C48.28764760195028 3.8554384699470297, 63.53931975747631 1.44736293582997, 75.3153630698394 0.3253030728755846 C87.0914063822025 -0.7967567900788008, 102.58633199378036 -0.05386070787906877, 107.93732670108152 0.2618262406667178 C113.28832140838267 0.5775131892125043, 107.88051782389154 1.635672970459526, 107.42133131364632 2.219424764150304" stroke="#000000" stroke-width="1" fill="none"></path></g><g transform="translate(695.4839527027045 540.3138724662156) rotate(0 48.5 12.5)"><text x="0" y="18" font-family="sans-serif" font-size="20px" fill="#000000" text-anchor="start">machine C</text></g><g><g transform="translate(496.5230152027037 403.18602195946) rotate(0 -47.71440021345643 62.96975823763157)"><path d="M-0.5529712591320276 0.3243504378944635 C-16.8677087194093 21.6465593919557, -81.18411067891515 106.66418807824536, -96.95141886367972 127.74495530562203 M1.5226184367667885 -1.8054388303589077 C-14.01869078875449 18.87109003023509, -78.45808678046448 103.68379018994443, -94.48918672215703 125.27265874742258" stroke="#000000" stroke-width="1" fill="none"></path></g><g transform="translate(496.5230152027037 403.18602195946) rotate(0 -47.71440021345643 62.96975823763157)"><path d="M-85.20116722447703 95.10958883771269 C-87.55801788827084 108.909915413378, -92.4252842406053 116.87859702802996, -93.16297296930614 126.93672261274148 M-84.97266644941548 97.07050183368443 C-86.48761463710292 102.43767983922282, -88.96939436570501 108.43274026183272, -94.63459708385679 126.16908913830954" stroke="#000000" stroke-width="1" fill="none"></path></g><g transform="translate(496.5230152027037 403.18602195946) rotate(0 -47.71440021345643 62.96975823763157)"><path d="M-68.80199918601224 107.44601011910684 C-77.33975228734919 116.50656644697264, -88.40727881572897 119.8110467188163, -93.16297296930614 126.93672261274148 M-68.57349841095069 109.40692311507858 C-73.49695100861436 112.15129858968037, -79.28057433114796 115.66251754640182, -94.63459708385679 126.16908913830954" stroke="#000000" stroke-width="1" fill="none"></path></g></g><g transform="translate(311.2928631756757 531.2107263513512) rotate(0 84.86592060810813 32.96558277027026)"><path d="M115.98161667335756 3.0639550793745585 C128.20699622551157 4.295945603646511, 142.0249308816235 7.121857103831093, 150.8312758760802 10.845861155318701 C159.63762087053692 14.569865206806309, 166.11562201355332 20.08940128565419, 168.81968664009779 25.407979388300202 C171.52375126664225 30.726557490946213, 170.83310256203708 37.61988133967166, 167.055663635347 42.75732977119476 C163.27822470865692 47.894778202717866, 155.62409561021923 52.55827397018686, 146.15505307995738 56.232669977438846 C136.68601054969554 59.90706598469083, 123.12159326030412 63.134516429783325, 110.24140845377592 64.80370581470666 C97.36122364724771 66.47289519962999, 82.0511605887491 67.21138199198556, 68.87394424078813 66.24780628697886 C55.69672789282718 65.28423058197215, 41.55002467413594 62.27656052638842, 31.17811036601016 59.02225158466646 C20.806196057884378 55.767942642944504, 11.651428926902923 51.707246912618274, 6.642458392033461 46.72195263664711 C1.633487857163999 41.736658360675946, -0.19484396573404195 34.2619674533303, 1.124287156793386 29.110485928839466 C2.443418279320814 23.959004404348637, 7.296580377930989 19.858160558202847, 14.55724512719803 15.813063489702131 C21.81790987646507 11.767966421201415, 32.95978704640644 7.450660129976578, 44.68827565239563 4.839903517835161 C56.41676425838482 2.2291469056937445, 72.34308126448502 0.3397317288586249, 84.92817676313317 0.1485238168536327 C97.51327226178131 -0.042684095151359486, 113.68538713271373 2.8484784984686518, 120.19884864428451 3.692656045805208 C126.71231015585529 4.536833593141764, 124.60955409609241 4.891042161415117, 124.00894583255786 5.213589100872969 M111.14863646691559 1.0661631834481184 C123.38365926252504 2.1815877739779967, 136.6662771637242 5.675029879060908, 145.80365923273064 9.589568244367982 C154.94104130173707 13.504106609675055, 162.53681067116645 19.19547386028691, 165.9729288809542 24.553393375290565 C169.40904709074198 29.91131289029422, 169.26575807972455 36.53219590686023, 166.42036849145725 41.73708533438991 C163.57497890318996 46.94197476191959, 157.66950557279756 52.03403694759233, 148.9005913513505 55.782729940468656 C140.13167712990344 59.531422933344984, 126.41861896012165 62.36834667476458, 113.80688316277488 64.22924329164786 C101.19514736542811 66.09013990853114, 86.41847276257414 67.52083805209897, 73.23017656726988 66.94810964176833 C60.04188037196561 66.37538123143769, 45.233161624997024 64.06052526215473, 34.67710599094927 60.79287282966399 C24.12105035690152 57.52522039717326, 15.450773939184582 52.022292234238975, 9.893842762983382 47.34219504682393 C4.336911586782182 42.66209785940889, 1.0200489830298451 37.84994851235493, 1.3355189337420654 32.712289705173745 C1.6509888844542857 27.574630897992563, 5.09519764339138 20.94643517213076, 11.786662467256704 16.51624220373683 C18.47812729112203 12.086049235342902, 30.30564657677823 8.970628450145332, 41.48430787693401 6.131131894810171 C52.66296917708979 3.2916353394750097, 66.94493096910332 0.2787858761560287, 78.8586302681914 -0.5207371282741349 C90.77232956727948 -1.3202601327042984, 107.43628750120473 0.8933702724899817, 112.9665036714625 1.3339938682291894 C118.49671984172028 1.7746174639683971, 112.44564332881397 1.477316014587767, 112.039927289738 2.1230044461611115" stroke="#000000" stroke-width="1" fill="none"></path></g><g transform="translate(346.69193412162264 552.0959670608117) rotate(0 50 12.5)"><text x="0" y="18" font-family="sans-serif" font-size="20px" fill="#000000" text-anchor="start">machine D</text></g><g><g transform="translate(1134.487542229732 400.3355152027032) rotate(0 -47.97556044091721 64.69441847799675)"><path d="M0.8368412587791683 0.7644025292247534 C-14.951479303724359 21.556683919618695, -78.8961842903832 104.75888890271469, -95.19691825925881 125.64363130690258 M0.637604803936556 0.8814908214937898 C-15.25355300611746 22.476995702304734, -80.83833409092037 107.58586717375016, -96.78796214061367 128.62443442676874" stroke="#000000" stroke-width="1" fill="none"></path></g><g transform="translate(1134.487542229732 400.3355152027032) rotate(0 -47.97556044091721 64.69441847799675)"><path d="M-86.53984338520178 101.45561099150133 C-91.91072540684132 106.04098275992078, -93.53834489137334 113.43355916695916, -97.82467783252287 129.32127027806553 M-87.26125581199386 100.15635731075805 C-91.29104800483792 109.879354520874, -93.94277209281553 119.57731865593487, -96.98263882017272 129.3864354317701" stroke="#000000" stroke-width="1" fill="none"></path></g><g transform="translate(1134.487542229732 400.3355152027032) rotate(0 -47.97556044091721 64.69441847799675)"><path d="M-70.23875396770471 113.92134346852026 C-79.95803395843531 115.36579346998437, -85.84160315442716 119.50376957517062, -97.82467783252287 129.32127027806553 M-70.9601663944968 112.62208978777699 C-80.6166800338505 118.16534278030356, -88.94393644991183 123.52312658418829, -96.98263882017272 129.3864354317701" stroke="#000000" stroke-width="1" fill="none"></path></g></g><g transform="translate(949.2573902027036 528.3602195945946) rotate(0 84.86592060810813 32.96558277027026)"><path d="M1.25473487317573 27.590984251703414 C1.25473487317573 27.590984251703414, 1.25473487317573 27.590984251703414, 1.25473487317573 27.590984251703414 M1.25473487317573 27.590984251703414 C1.25473487317573 27.590984251703414, 1.25473487317573 27.590984251703414, 1.25473487317573 27.590984251703414 M4.165883007529194 32.042519953022776 C9.008007754421453 28.54408257742621, 13.637080463428457 20.389306497590873, 21.29250783189505 14.086771430383322 M2.75129338547122 32.38687359254348 C9.135473774964725 23.69482323305234, 15.082045298055888 16.010047056273947, 19.841442879245875 11.730442102002797 M2.4136851116548783 37.49792851014948 C7.6611476691257785 32.13734058421149, 15.832124245130299 22.888829282723712, 26.37192469375909 9.237072984576141 M3.2350107630248672 37.708445790884554 C13.0519444393916 27.33867707580697, 20.80284300550758 17.098543269253327, 27.26522590412528 9.779798570908522 M4.276765223652905 42.657957092155954 C12.09443885287813 32.94418499657892, 17.86883186882053 24.6931824688711, 34.71421043684872 6.331140179027745 M3.881521063917166 43.82712248828753 C13.845663422354136 29.74503504160917, 24.383510973144286 17.187970619021154, 35.933078028430955 6.288653445270786 M4.83427021009804 46.260806167502906 C16.39433604160707 32.26685790147374, 26.66154658274685 22.761308751973846, 42.983069215767166 4.412317847867165 M6.067181848082257 46.138483303603735 C14.673647008774532 37.4896913967504, 22.64168021424824 28.16695255875944, 42.99243753762551 4.630582272109244 M11.48447019660302 48.96390515054212 C22.630700232943088 34.30807832724776, 33.85754924588221 21.66367013777123, 44.910946502136674 6.496260610668958 M9.96305987199225 46.96612586407558 C19.216835728286107 36.01850953930478, 28.529494473773816 26.87664032335535, 46.47881997169056 5.31650944638908 M13.162553712771086 50.63286450040262 C22.061813951044144 37.167236607339774, 30.492608779217942 30.60905563896468, 50.453178403494036 6.331627490002745 M13.346476233609764 48.756867904222716 C26.19460069033716 36.41475991556073, 36.23854900486198 22.958046199161014, 53.063717444022274 5.6616528285705385 M15.622068663205475 50.15868530121344 C26.426370808449875 40.215284356892965, 38.92783703800326 28.573954499645037, 56.572488170451976 6.292644775220328 M17.47619734339741 52.8042068460648 C33.11738819877323 32.97370364380682, 50.20856132959477 14.425471427822103, 58.43284514859275 5.584336608396047 M21.34059941448096 52.25613052143527 C31.78063172958238 43.76858303519176, 40.01379472630596 32.66023915735074, 61.73707648660426 4.8945102202279465 M20.591862011289333 53.95294105845315 C34.177141095583146 38.00070060953873, 47.456208474151026 22.817274247982716, 64.37798164985512 4.02764550266247 M24.864853592210277 55.80919207541991 C38.006125251326765 38.82790242557749, 52.56615595996128 23.359964406826617, 70.54600341054463 3.3653122039318504 M23.85281824375765 55.85088691863019 C37.06501761331209 39.72494558315849, 53.16343730786484 23.2609844735808, 69.01610082476252 3.4375939156666817 M27.340575283977675 57.65062376185084 C40.164521564057495 43.78008747197202, 50.05500284990687 32.83448484824336, 73.66668837586683 4.70852973023829 M27.46178644674598 58.63466175067002 C38.43383705317871 45.96885226409285, 50.421978613656236 33.682572852392994, 75.32062186276805 3.7318759392055583 M31.793986010348437 60.37915084396599 C49.4430423794776 40.65756035128341, 66.30885376452508 17.9857932221477, 81.77241019116462 2.7655324280535254 M32.54005039667898 59.6531434057012 C47.02101367816443 41.847191426806944, 61.80030324876547 24.73190577051129, 80.65265926582487 3.268615352575985 M35.16475346395427 60.214356271562714 C53.683321853523104 39.624910486949474, 70.99912667515439 21.66297276166746, 86.79192509801277 -0.23133860916173887 M36.75417597954774 61.22860648391171 C49.84770321520507 45.19775219516018, 61.922435013328474 30.941755029588144, 86.60439090636709 1.3056964621292906 M40.11619985737945 61.002665718324465 C51.407090986144055 48.27782653128072, 66.0167632107379 33.54268299421354, 93.28637648106195 2.9508249788353638 M40.7199695387959 61.56895737187563 C56.42913186728174 43.40724632590543, 72.6731644319836 25.94337661215578, 91.96971773740478 2.516609903498967 M45.0364477492177 63.80810506315751 C60.01168247241157 43.599017363122265, 75.60892380567552 28.152733563804432, 94.8519164188585 1.2685167948372396 M45.59737370137657 62.26474172388984 C56.35365087195678 49.954016803644315, 69.78668666466798 36.01293117974622, 95.74063534334364 2.6197206173680456 M48.6319790730628 65.2200908099681 C67.3748966033234 44.21047406393994, 86.37824896872236 22.38464571014211, 100.90420219100562 3.2943785479728973 M48.277776406742895 63.50318488175122 C60.49164585372421 50.470930316633485, 70.10549247812118 38.51324820590459, 101.48548044714627 4.17708071325616 M52.52119416649899 65.6612205074397 C63.688400614677036 50.22964157980835, 77.21054083489864 37.632522889559326, 105.20830948109707 2.9967329921486012 M53.57131993583849 64.28223229453387 C69.43588708929607 46.18392298967751, 84.58504184434057 28.442402155671978, 106.47259411326579 3.2802124079601995 M58.547675655139 63.46861106992411 C74.57047700736956 48.684644181644586, 88.3118607966343 32.78425018141173, 110.50411431873613 6.311503086493367 M58.11391479513547 65.39813783948021 C78.3496938832244 41.56069013814209, 99.84502184835577 17.42395406011004, 111.88945368966483 6.028277185999805 M61.9979835975766 68.18285087632758 C78.60570711709035 45.53537093492372, 96.28210963161709 27.800874865048854, 115.0680291954975 7.185873674467892 M61.17878486158697 66.64066592088712 C83.37363478357668 42.7746883228518, 104.81153118080562 19.14821786254877, 115.99815892377751 5.477987478726298 M68.85127354336755 66.10108060966527 C87.44161585277763 46.516066435109146, 106.06145316227835 23.018004963455965, 122.71414889098448 5.169048965201213 M68.51983544060813 67.25242230966037 C86.39630518055644 47.117228559448776, 104.63929189068935 24.40720130349129, 121.73032778856647 5.140614145659342 M73.84408818514358 66.39600821973453 C89.56092209077913 45.41313754198617, 108.29683271305396 26.491840011428934, 125.35598658879077 5.455914212599573 M72.03019491819005 67.95411910598794 C93.91087029449358 44.263146383180285, 113.38603725242189 20.720189888959403, 125.84258259848481 5.931898153595803 M76.93662473548895 66.36718438021882 C93.34980732546732 52.400512178738346, 106.89606055711423 34.67786050034498, 131.63185581851965 5.4589548757919815 M76.80223213777637 67.10210019644393 C91.24708839730204 53.41910860285919, 104.01372893375782 37.50677581715989, 131.13568195149517 6.650219737055316 M81.96993978198792 68.27705038980163 C101.24051314879426 46.57092774597078, 117.82360709915739 26.10554979256394, 132.15448851376487 8.361337458684716 M83.37851125531073 67.43063915510244 C97.20428995612805 49.9547605327154, 113.2483444677282 33.08904012114882, 134.29788878705068 8.435929237834785 M86.63527220025321 68.67756691283476 C105.00414518221626 46.45987296428671, 125.41946373258044 27.834516037968953, 138.1045940411012 11.424699929738473 M88.31486465226521 68.2848179842059 C99.20551637226293 55.500177868794104, 109.12314772558088 43.81456934708079, 138.09227941508547 10.98538752478553 M93.00395635685958 66.18974691777889 C110.38305339946054 50.83933626511589, 124.80278590147122 33.69958365207174, 141.88806405513182 12.825199623082241 M94.30405613857396 67.30631005260561 C110.49007995097466 49.03919825601939, 125.90293940059833 31.684495407975035, 142.60769837106213 12.293263894927165 M98.21644987741979 66.60383231898585 C107.93743614800971 56.5831108595533, 120.13332641882381 44.35294434693368, 145.69770861445056 13.697174917622334 M99.4585587207091 68.43980673754403 C109.71701736739602 55.97362523567796, 118.45273130029774 44.91283376631185, 147.41424453193383 12.602447752556628 M105.6683058785086 65.90411733491632 C119.33054293448882 48.71053889136604, 138.72936516174494 27.99664289028439, 152.1386381236606 14.705064397487718 M104.09027683360479 66.86409078287247 C113.72003340146361 57.20615085676631, 124.03509785271768 45.13409616508821, 150.78240305816314 13.882217769693511 M109.01131879371974 65.85970596947655 C127.3652310533529 50.20525678405273, 141.2145672506419 31.788434508016536, 156.78999944933673 14.08706853113911 M111.3054421667141 65.48904378038779 C128.45765805684582 47.678919224500135, 143.92500112976563 28.54529317161844, 155.83853150968423 15.778153565189157 M118.09102437366596 67.08701201201833 C128.30584961069232 51.1562852693973, 140.68263303439093 36.79570002949781, 159.55006271709172 16.00061673292832 M116.53586366400918 65.92439616983242 C125.91861919145278 54.14072493608189, 135.47073815553898 44.298585305636706, 158.50369664296923 16.863852766286 M122.82055385992203 63.584001556002406 C133.83107081748255 51.56526327401706, 144.4117234070576 40.38503943647342, 162.51007548551928 19.056609881761602 M122.00653169792417 63.92021975755772 C134.1420637134005 51.89923488674964, 144.59154112994491 38.328922995410764, 160.96127858497124 19.08142352728092 M130.52572078209118 65.07566006055775 C136.73914838249206 54.442683233257355, 144.88632267273968 44.70613743096671, 164.57964468821316 24.891339481545174 M129.67445486642168 63.61864477808329 C137.1324186275844 53.3174891484489, 145.17417726630399 44.62657976280322, 164.87610277514338 23.219653689970755 M136.50675707376718 61.05765402959065 C148.6630525890171 48.95348574491052, 160.51717892566234 34.87704092595219, 168.73635469174815 25.719568500739783 M136.38414610895484 62.50377157320605 C144.53579598556433 51.984368869954665, 153.6023476097331 41.85536371392246, 166.2378080234198 26.373341623206883 M140.66369501455324 63.368250172230105 C148.95552119132958 50.47938087191115, 157.44734791044453 41.8965777269474, 170.02691312173695 27.92528885369721 M142.08675464848625 61.87983975244562 C148.21846980449473 53.070744410120795, 155.27350285137913 45.04259291190458, 169.9557423362726 28.44030370423171 M149.9944575199672 57.70371960060019 C155.1232256493779 52.36137096221614, 157.65914335862638 47.35003552353572, 163.53647377585878 39.38835014132862 M150.9319062813931 55.29288239081669 C157.43121731164106 49.55124207001243, 161.36673455324967 44.79845232065145, 165.42203582974037 39.35425305934702" stroke="#868e96" stroke-width="0.5" fill="none"></path><path d="M44.0227321425043 3.384614100183388 C54.78563508072903 0.8191940250396659, 71.75792198547082 0.234598973041883, 85.15977932002859 0.4816957858973083 C98.56163665458637 0.7287925987527336, 112.63478986776315 2.481969407828014, 124.43387614985093 4.86719497731594 C136.23296243193872 7.252420546803865, 148.51362106085728 10.680547929282497, 155.95429701255534 14.793049202824864 C163.3949729642534 18.90555047636723, 167.81678609615963 24.487356608826467, 169.0779318600394 29.542202618570144 C170.33907762391917 34.59704862831382, 168.61041351662874 40.17918550642554, 163.521171595834 45.122125261286925 C158.43192967503927 50.06506501614831, 148.7939590199985 55.87356725473724, 138.54248033527108 59.19984114773844 C128.29100165054365 62.52611504073964, 115.19442566779153 64.19381468492179, 102.01229948746938 65.07976861929413 C88.83017330714722 65.96572255366647, 72.22687026651626 65.83113097617132, 59.44972325333815 64.51556475397243 C46.67257624016005 63.199998531773524, 34.70939018949701 60.81444498879382, 25.349417408400754 57.18637128610071 C15.9894446273045 53.5582975834076, 7.28714994177731 47.70098847000963, 3.2898865667606287 42.74712253781378 C-0.7073768082560528 37.793256605617934, -1.3209879242259368 32.66474607556386, 1.365837158300664 27.46317569292563 C4.0526622408272654 22.2616053102874, 9.675331237374321 15.737589976101212, 19.410837061920233 11.537700241984396 C29.146342886466144 7.337810507867579, 50.32572209010844 3.9799826433242798, 59.77887210557614 2.2638372882247317 C69.23202212104384 0.5476919331251839, 75.805527867633 0.9379394959751661, 76.12973715472641 1.2408281113871098 M91.86052817639668 -1.249460762309603 C104.26583156169946 -1.5946027572780146, 118.20468824233848 1.3748064883983449, 129.45916220089862 4.1651450269324535 C140.71363615945876 6.955483565466562, 152.5587907381933 10.923266028650419, 159.3873719277575 15.49257046889505 C166.2159531173217 20.061874909139682, 170.26983617015523 26.436303842873855, 170.43064933828384 31.580971668400238 C170.59146250641246 36.72563949392662, 166.48091497108257 41.4885450827402, 160.35225093652912 46.36057742205335 C154.22358690197566 51.232609761366504, 144.259464352773 57.46419686976811, 133.65866513096316 60.81316570427914 C123.05786590915332 64.16213453879017, 110.09825514088216 66.0694545352546, 96.74745560567005 66.45439042911954 C83.39665607045795 66.83932632298449, 66.33693337281285 65.21269638600369, 53.55386791969056 63.12278106746881 C40.77080246656827 61.03286574893393, 28.792044906167483 57.57041154011283, 20.04906288693632 53.91489851791025 C11.306080867705154 50.259385495707676, 4.070415098481082 46.231030262969256, 1.0959758043035635 41.18970293425335 C-1.8784634898739547 36.14837560553744, -1.3844578493971453 28.908518997219087, 2.20242712187121 23.666934545614794 C5.789312093139566 18.4253500940105, 13.48162855853322 13.319217065401245, 22.617285631913695 9.740196224627596 C31.75294270529417 6.161175383853946, 45.54163332900727 3.958519559639707, 57.01636956215406 2.1928095009728956 C68.49110579530085 0.42709944230608454, 85.91741613993172 -0.8131731420169862, 91.46570303079444 -0.8540641273732703 C97.01398992165717 -0.8949551127295544, 90.652486977134 1.13353286999522, 90.30609090733044 1.9474635888351912" stroke="#000000" stroke-width="1" fill="none"></path></g><g transform="translate(985.0048564189212 549.2454603040546) rotate(0 50 12.5)"><text x="0" y="18" font-family="sans-serif" font-size="20px" fill="#000000" text-anchor="start">machine D</text></g></svg>