<svg version="1.1" xmlns="http://www.w3.org/2000/svg" viewBox="0 0 901.395733173077 493.41977163461536">
  <!-- svg-source:excalidraw -->
  <defs>
    <style>
      @font-face {
        font-family: "Virgil";
        src: url("https://excalidraw.com/FG_Virgil.woff2");
      }
      @font-face {
        font-family: "Cascadia";
        src: url("https://excalidraw.com/Cascadia.woff2");
      }
    </style>
  </defs>
  <rect x="0" y="0" width="901.395733173077" height="493.41977163461536" fill="#ffffff"></rect><g transform="translate(469.405498798077 170.2771935096154) rotate(0 63.8203125 25.15234375)"><path d="M68.56156586489254 -0.822159325887835 C79.51091472842535 -0.7912560516571023, 92.92088750255283 2.59335193562911, 102.17357434659105 5.3414240104497175 C111.42626119062928 8.089496085270325, 119.95892794718779 11.633257361955788, 124.07768692912187 15.666273123035813 C128.19644591105595 19.699288884115838, 129.32638340554854 25.18402720407939, 126.88612823819554 29.53951857692987 C124.44587307084252 33.89500994978035, 117.3620115695048 38.33741539669764, 109.43615592500379 41.7992213601387 C101.51030028050278 45.26102732357977, 90.47120194158872 49.212840495635305, 79.33099437118942 50.31035435757626 C68.19078680079012 51.40786821951721, 53.65860504732106 49.82470057898056, 42.594910502607995 48.38430453178444 C31.53121595789493 46.94390848458831, 20.107572575109238 45.183069166972636, 12.948827102911004 41.6679780743995 C5.790081630712771 38.15288698182636, 0.6477599251085404 32.01979829202658, -0.35756233058140197 27.29375797634563 C-1.3628845862713443 22.567717660664684, 1.861337814668059 17.085838464644276, 6.91689356877135 13.311736180313826 C11.972449322874642 9.537633895983376, 20.149862502835024 6.869577232099852, 29.975772194038342 4.649144270362928 C39.80168188524166 2.4287113086260046, 57.92118740402126 0.6975294970973843, 65.87235171599126 -0.010861590107715813 C73.82351602796125 -0.719252677312816, 74.53535695926212 0.018032333371088782, 77.68275806585831 0.39879774713232763 C80.8301591724545 0.7795631608935665, 84.86754970566216 1.7352670089140472, 84.75675835556841 2.2737308924597173 M51.511075330555485 0.9194769578300601 C61.979099269180495 -0.5673818271844635, 76.4916156561297 -0.7842226594089989, 86.91950736461185 0.5433986718189914 C97.347399073094 1.8710200030469817, 107.35590198511463 4.901497850962361, 114.07842558144839 8.885204945198002 C120.80094917778214 12.868912039433642, 126.36420194752705 19.742880928002275, 127.25464894261444 24.445641237232838 C128.14509593770183 29.1484015464634, 124.669727273862 33.45799164022298, 119.42110755197268 37.10176680058137 C114.17248783008337 40.74554196093977, 105.70637497848038 44.01717311569333, 95.76293061127855 46.3082921993832 C85.81948624407671 48.599411283073074, 71.37408068377644 50.946404191600095, 59.76044134876171 50.84848130272059 C48.146802013746985 50.75055841384109, 35.36800267156105 48.38540568270663, 26.081094601190202 45.72075486610617 C16.794186530819353 43.056104049505706, 8.274012711204378 39.046669533212786, 4.038992926536615 34.86057640311783 C-0.19602685813114729 30.67448327302288, -1.5628546130546788 24.908139480304467, 0.6709758931836305 20.604196085536454 C2.9048063994219397 16.300252690768442, 9.680359033237071 12.210915015152784, 17.44197596396647 9.036916034509755 C25.20359289469587 5.862917053866726, 41.473740400527234 3.1760507007806353, 47.24067747756003 1.5602022016782833 C53.00761455459282 -0.05564629742406879, 51.27342297633393 -0.43155067400424996, 52.04359842616323 -0.6581749601043576 C52.813773875992524 -0.8847992462044653, 51.795545956695705 -0.5954437589502598, 51.861730176535815 0.20045648507763758" stroke="#000000" stroke-width="1" fill="none"></path></g><g><g transform="translate(630.007061298077 102.91391225961539) rotate(0 -33.01247356389189 34.17046098203399)"><path d="M-0.8562581140547991 0.3645764607936144 C-11.943482800200583 11.932246309394637, -55.85777180977166 58.44944447067877, -66.5655985314399 69.93625761456788 M0.5406514036562293 -1.6760941101517528 C-10.090040002176538 10.20954972799557, -53.36935130299069 58.01572729474245, -64.61472863526083 70.01701607421973" stroke="#000000" stroke-width="1" fill="none"></path></g><g transform="translate(630.007061298077 102.91391225961539) rotate(0 -33.01247356389189 34.17046098203399)"><path d="M-52.49232112382403 41.098751266625776 C-54.83751533758768 51.667001150303975, -59.33607782536533 57.751178070279664, -66.03204771139659 70.60789192521014 M-53.69867811583778 43.040389770780756 C-54.92872860393467 48.14376474301134, -57.83565424499429 54.31702041104738, -63.890880090268325 70.91013140750118" stroke="#000000" stroke-width="1" fill="none"></path></g><g transform="translate(630.007061298077 102.91391225961539) rotate(0 -33.01247356389189 34.17046098203399)"><path d="M-37.379660714228535 54.98138422043121 C-44.26678592684883 61.32588698359176, -53.24593685688108 63.294152933888725, -66.03204771139659 70.60789192521014 M-38.58601770624229 56.92302272458619 C-43.058342729330626 59.216781460969, -49.1149003128729 62.49675540282364, -63.890880090268325 70.91013140750118" stroke="#000000" stroke-width="1" fill="none"></path></g></g><g><g transform="translate(680.413311298077 111.63656850961539) rotate(0 -1.655544328177598 31.9517941367114)"><path d="M-0.32752129845321176 -0.9805976349860429 C-0.4929758896353519 9.821517944258323, -0.6694662833823146 53.896467513948046, -0.9408752355263688 64.5756251006387 M-1.680667033335194 0.08163387685082846 C-2.2348598999856835 10.79845432339857, -2.8308080068001775 54.44013641027112, -2.9835673579019613 64.88418590840882" stroke="#000000" stroke-width="1" fill="none"></path></g><g transform="translate(680.413311298077 111.63656850961539) rotate(0 -1.655544328177598 31.9517941367114)"><path d="M-14.462419844365025 37.83136106568409 C-8.472431820213737 44.79047796606903, -7.945331811007853 54.1937779446982, -2.3461212058556384 63.04739133645779 M-13.311580242721641 36.009771993449164 C-10.538018772185657 45.64968300920084, -6.633449327131594 54.43064860125871, -2.894304344337911 65.69911365867591" stroke="#000000" stroke-width="1" fill="none"></path></g><g transform="translate(680.413311298077 111.63656850961539) rotate(0 -1.655544328177598 31.9517941367114)"><path d="M6.056565370000159 38.13343416694023 C5.802791528471584 44.94462049889855, 0.08553290550432013 54.25599328143737, -2.3461212058556384 63.04739133645779 M7.207404971643543 36.311845094705305 C3.735836622249579 45.989629227884734, 1.3931780269234055 54.67862538145931, -2.894304344337911 65.69911365867591" stroke="#000000" stroke-width="1" fill="none"></path></g></g><g><g transform="translate(739.300030048077 99.24203725961539) rotate(0 31.347417769175934 37.49904960806015)"><path d="M-1.024875186011195 -0.5501039464026689 C9.69724044253428 11.889878072263672, 53.50492527584232 62.63037268430924, 64.45267834030088 75.21502366354687 M-1.7578428019490093 0.6101071193721146 C8.553778455241886 13.006289481110867, 52.076520841900845 62.94994189567863, 63.38103435487482 75.54820316252297" stroke="#000000" stroke-width="1" fill="none"></path></g><g transform="translate(739.300030048077 99.24203725961539) rotate(0 31.347417769175934 37.49904960806015)"><path d="M36.12330674668474 60.41068462675459 C46.33245527232411 65.4349476799907, 54.06939369555704 71.96872295257916, 64.6609348926786 73.62706348826175 M37.667995363564025 62.074910006690985 C46.580994629903664 66.6398015491512, 54.106422935197145 70.26957152145673, 63.504834564598234 75.50812672139143" stroke="#000000" stroke-width="1" fill="none"></path></g><g transform="translate(739.300030048077 99.24203725961539) rotate(0 31.347417769175934 37.49904960806015)"><path d="M51.515170767145115 46.83826684798367 C57.01791061985508 55.93850579716366, 59.98339098936382 66.67971312820457, 64.6609348926786 73.62706348826175 M53.0598593840244 48.502492227920065 C56.72798754674663 57.673010351106655, 59.12270441533969 65.82699902938884, 63.504834564598234 75.50812672139143" stroke="#000000" stroke-width="1" fill="none"></path></g></g><g transform="translate(609.010967548077 55.71859975961539) rotate(0 70.353515625 26.3515625)"><path d="M63.82426222088415 0.12692928630776024 C74.97722468355069 -0.8002329985322559, 88.65616231483303 0.220497989163859, 99.29555820564482 2.1200903832948192 C109.93495409645662 4.019682777425779, 120.701932249239 7.631224498785631, 127.66063756575491 11.524483651093522 C134.61934288227081 15.417742803401413, 140.12305656367346 20.85725653982697, 141.04779010474033 25.479645297142163 C141.9725236458072 30.102034054457356, 138.75357193922216 35.41043512401874, 133.20903881215622 39.258816194984675 C127.66450568509028 43.10719726595061, 118.32922928886516 46.297886362412946, 107.78059134234468 48.56993172293777 C97.23195339582419 50.84197708346259, 81.96649786475919 52.73237384295636, 69.91721113303332 52.891088358133615 C57.86792440130745 53.04980287331087, 45.73658175588498 51.98480202594394, 35.48487095198944 49.52221881400128 C25.23316014809391 47.05963560205861, 14.154349746204954 42.103247490649544, 8.406946309660107 38.11558908647763 C2.65954287311526 34.12793068230571, 0.3779997322289409 30.022602760318662, 1.0004503327203622 25.596268388969776 C1.6229009332117834 21.16993401762089, 5.6643872477505015 15.429261687847308, 12.141649912608635 11.557582858384317 C18.61891257746677 7.685904028921325, 29.885882411704355 4.261197223762593, 39.86402632186916 2.3661954121918214 C49.842170232033965 0.4711936006210502, 64.9301675880452 0.2933080567603324, 72.01051337359748 0.1875719889596894 C79.09085915914976 0.08183592115904641, 82.2257222377117 1.2751410570176869, 82.34610103518287 1.7317790053879634 M102.94058640357497 3.7706966927748233 C113.49596762725636 5.561746426432313, 124.4207596679204 9.484475483961646, 130.62333334327403 13.16339742130605 C136.82590701862767 16.842319358650453, 140.1606706160979 21.26134965983643, 140.15602845569677 25.84422831684125 C140.15138629529565 30.42710697384607, 136.46016983639169 36.8934316072382, 130.59548038086731 40.66066936333497 C124.73079092534296 44.42790711943174, 115.34634282798456 46.63194368845235, 104.9678917225506 48.44765485342188 C94.58944061711665 50.26336601839141, 80.50435122161221 51.5348617935275, 68.32477374826358 51.55493635315216 C56.145196274914944 51.57501091277682, 42.290809431448096 50.82800917383419, 31.890426882458783 48.56810221116983 C21.49004433346947 46.30819524850547, 11.215674492963895 42.28259727750972, 5.9224784543277025 37.995494577166006 C0.6292824156915087 33.70839187682229, -1.2961637412704736 27.47934719861032, 0.13125065064161845 22.84548600910753 C1.5586650425537105 18.211624819604737, 7.510381307774857 13.504152064570993, 14.486964805800255 10.192327440149262 C21.463548303825654 6.88050281572753, 30.97720458452273 4.7822535464968166, 41.99075163879401 2.9745382625771413 C53.00429869306529 1.1668229786574662, 70.41599320549805 -0.6569274382845727, 80.56824713142791 -0.6539642633687883 C90.72050105735777 -0.651001088453004, 99.45875782426215 2.3804874323303196, 102.90427519437314 2.9923173120718474 C106.34979256448413 3.604147191813375, 101.58906691087458 2.5768459465016047, 101.24135135209384 3.0170150150803785" stroke="#000000" stroke-width="1" fill="none"></path></g><g transform="translate(648.641826923077 70.62289663461539) rotate(0 31.5 12.5)"><text x="0" y="18" font-family="Virgil" font-size="20px" fill="#000000" text-anchor="start">parent</text></g><g transform="translate(503.07196514423094 185.31745793269218) rotate(0 27 11.5)"><text x="0" y="18" font-family="Helvetica" font-size="20px" fill="#000000" text-anchor="start">key: A</text></g><g transform="translate(614.460186298077 176.8318810096154) rotate(0 63.8203125 25.15234375)"><path d="M82.26854755618598 1.014431331381875 C93.05187935694026 1.9171290644655596, 106.08336464818123 5.848131448244125, 113.60425207764352 9.405716991693478 C121.12513950710581 12.96330253514283, 125.92477258161207 18.136721445021358, 127.3938721329597 22.35994459207799 C128.86297168430733 26.583167739134623, 127.35022432721446 30.78293062596556, 122.41884938572927 34.745055874033284 C117.48747444424409 38.707181122101005, 107.5774786384631 43.6964417931734, 97.80562248404857 46.13269608048434 C88.03376632963403 48.568950367795274, 75.13548131415502 49.420079521312324, 63.787712459242016 49.3625815978989 C52.43994360432902 49.30508367448548, 39.34287634751125 47.86801212761385, 29.719009354570574 45.78770854000382 C20.095142361629893 43.70740495239379, 10.787776483410273 40.831879019920514, 6.044510501597934 36.880760072238694 C1.3012445197855946 32.92964112455687, -0.21501696217691801 26.72821897041203, 1.2594134636965393 22.080994853912905 C2.7338438895699966 17.43377073741378, 7.897668172671722 12.630169303583937, 14.891093056838677 8.99741537324394 C21.884517941005633 5.3646614429039445, 32.38285707536542 1.5159527813918858, 43.219962768698274 0.2844712718729241 C54.057068462031125 -0.9470102376460376, 72.10299377786723 1.3786085779476533, 79.91372721683578 1.6085263161301704 C87.72446065580434 1.8384440543126874, 87.1283465296578 1.159566146127034, 90.0843634025096 1.6639777009680259 C93.04038027536139 2.168389255809018, 97.91247794206484 4.1636119194909424, 97.64982845394653 4.634995645176122 M69.70285636454315 0.19376913214972546 C80.70163109843999 0.4718250195004252, 95.08185026679081 3.5839847066986272, 104.22845364250435 6.328677727919651 C113.37505701821789 9.073370749140674, 120.84232666219914 12.347450273030567, 124.58247661882434 16.661927259475867 C128.32262657544953 20.976404245921167, 129.5932274395083 27.623709073298937, 126.66935338225557 32.21553964659145 C123.74547932500283 36.807370219883964, 115.33882431840962 41.10543630688804, 107.03923227530797 44.21291069923096 C98.73964023220631 47.32038509157388, 87.6138261300127 50.15420260755368, 76.87180112364564 50.860386000649 C66.12977611727858 51.566569393744324, 53.12938496443194 50.024120766518564, 42.5870822371056 48.45001105780291 C32.044779509779254 46.87590134908726, 20.833143696556814 45.13314833914599, 13.61798475968758 41.41572774835507 C6.402825822818347 37.698307157564145, 0.24531229997937487 30.617531897619603, -0.703871384109803 26.145487513057397 C-1.6530550681989808 21.67344312849519, 2.6582071088639703 18.628110477160625, 7.922882655152513 14.583461440981836 C13.187558201441057 10.538812404803046, 21.17350376401896 4.063283024686301, 30.884181893621456 1.87759329598466 C40.59486002322395 -0.3080964327169813, 59.58601909857946 1.8511544832994649, 66.18695143276747 1.4693230687719883 C72.78788376695547 1.0874916542445117, 69.89091578953268 -0.4500861167359762, 70.48977589874951 -0.4133951911802001 C71.08863600796634 -0.37670426562442394, 69.91272084892105 1.2764060712789298, 69.78011208806846 1.689468622106645" stroke="#000000" stroke-width="1" fill="none"></path></g><g transform="translate(647.393780048077 189.7424879807692) rotate(0 28 11.5)"><text x="0" y="18" font-family="Helvetica" font-size="20px" fill="#000000" text-anchor="start">key: B</text></g><g transform="translate(761.659405048077 174.2693810096154) rotate(0 63.8203125 25.15234375)"><path d="M75.33453385830657 -0.4853881670543245 C86.2085775206952 0.13008026519602822, 98.75269997706276 4.322143758805668, 107.24383526757046 7.469441236374934 C115.73497055807816 10.6167387139442, 123.29540563032356 14.135217967986005, 126.28134560135275 18.39839669836127 C129.26728557238195 22.661575428736537, 128.81622029567697 28.735957952552432, 125.15947509374567 33.04851361862652 C121.50272989181437 37.36106928470061, 113.00258583709368 41.33565613767809, 104.3408743897649 44.27373069480582 C95.67916294243614 47.21180525193355, 84.19931930375867 49.884928671484424, 73.18920640977308 50.67696096139288 C62.17909351578749 51.468993251301335, 48.90056014562032 50.95717959256487, 38.28019702585138 49.025924434256545 C27.65983390608244 47.09466927594822, 15.733388075925525 43.14020607125473, 9.467027691159451 39.08943001154295 C3.2006673063933784 35.03865395183117, 0.503406870062007 29.36064449979778, 0.6820347172549432 24.72126807598588 C0.8606625644478795 20.08189165217398, 4.727561630228933 14.794472709439036, 10.538794774317068 11.253171468671548 C16.350027918405203 7.711870227904059, 25.594397787842304 5.249487897060169, 35.54943358178376 3.473460631380945 C45.504469375725215 1.6974333657017213, 62.25079924078592 1.1308535759456944, 70.2690095379658 0.5970078745962049 C78.28721983514568 0.06316217324671547, 80.26875227945146 -0.014077665209572487, 83.65869536486304 0.27038642328400897 C87.04863845027461 0.5548505117775904, 91.06955616006347 1.6760451515511572, 90.60866805043523 2.3037924055576937 M58.50414128178488 1.0884085772257315 C69.291497347663 0.2502059129675871, 83.33175206144313 -0.4012634701225746, 93.2911495599605 1.5885491903562432 C103.25054705847788 3.578361850835061, 112.40867415275189 8.789210995167924, 118.26052627288914 13.027284540098638 C124.11237839302639 17.26535808502935, 128.6342717929396 22.913100343325993, 128.402262280784 27.01699045994052 C128.1702527686284 31.120880576555045, 123.5551676792644 33.96257356772962, 116.86846919995548 37.65062523978579 C110.18177072064657 41.33867691184196, 98.82368120969845 47.25901710413604, 88.28207140493049 49.14530049227752 C77.74046160016253 51.031583880419, 64.66809225228327 49.65228404615033, 53.618810371347706 48.96832556863465 C42.56952849041214 48.284367091118966, 30.568906752272458 47.91107975523135, 21.98638011931709 45.04154962718344 C13.403853486361722 42.17201949913554, 5.3404135005661235 35.97369280882122, 2.1236505736154996 31.7511448003472 C-1.093112353335124 27.528596791873177, -0.34228308345824354 23.927470560079833, 2.68580255761335 19.706261576339315 C5.713888198684943 15.485052592598798, 12.086409626747665 9.825609763195265, 20.29216442004506 6.423890897904091 C28.497919213342456 3.0221720326129162, 45.5984726073828 0.4659198144787098, 51.92033131739773 -0.7040516154077316 C58.24219002741266 -1.874023045294173, 57.4924757702793 -0.7683190538067807, 58.22331668013463 -0.5959376814145578 C58.95415758998996 -0.423556309022335, 56.561787777009926 -0.45707687915361106, 56.30537677652971 0.3302366189456052" stroke="#000000" stroke-width="1" fill="none"></path></g><g transform="translate(793.592998798077 186.9471153846154) rotate(0 28.5 11.5)"><text x="0" y="18" font-family="Helvetica" font-size="20px" fill="#000000" text-anchor="start">key: C</text></g><g transform="translate(647.0585937500003 10) rotate(0 33.5 11.5)"><text x="0" y="18" font-family="Helvetica" font-size="20px" fill="#000000" text-anchor="start">old tree</text></g><g transform="translate(641.2750901442308 262.61268028846166) rotate(0 38.5 11.5)"><text x="0" y="18" font-family="Helvetica" font-size="20px" fill="#000000" text-anchor="start">new tree</text></g><g transform="translate(471.501201923077 426.56039663461536) rotate(0 63.8203125 25.15234375)"><path d="M71.21278261139761 -0.7509884379515874 C82.26261901252607 -0.4836495421955351, 96.27876984858608 2.9642429211187693, 105.2682829447566 6.044960271100482 C114.25779604092713 9.125677621082195, 121.84200988717569 13.480970275821896, 125.14986118842073 17.73331566193869 C128.45771248966577 21.985661048055483, 127.95279602191857 27.14175586917973, 125.11539075222683 31.55903258780125 C122.27798548253509 35.97630930642278, 116.28632119605548 41.06451258781906, 108.12542957027026 44.23697597366783 C99.96453794448503 47.409439359516604, 87.56897262968691 49.79720043431285, 76.15004099751548 50.59381290289389 C64.73110936534404 51.390425371474926, 50.21714285995844 50.89147068218614, 39.61183977724161 49.01665078515407 C29.006536694524783 47.141830888122, 19.079540170449103 43.01180679855302, 12.518222501214481 39.3448935207015 C5.95690483197986 35.677980242849976, 0.8246365649930034 31.322354483122034, 0.24393376183388682 27.01517111804494 C-0.3367690413252298 22.707987752967846, 3.395864286451652 17.451896224397796, 9.034005682259782 13.501793330238925 C14.672147078067912 9.551690436080055, 24.16560714598325 5.572593776870711, 34.07278213668266 3.3145537530917153 C43.97995712738207 1.056513729312719, 61.05223741123073 0.3247537765818039, 68.47705562645623 -0.046446812435053886 C75.90187384168173 -0.41764740145191165, 75.70620317082327 0.6947990078030817, 78.62169142803569 1.0873502189905686 C81.5371796852481 1.4799014301780555, 86.24981775784994 1.9172677436110217, 85.96998516973076 2.3088604546898672 M90.39003349914705 1.977074602160755 C100.45772896165343 3.4264408495843943, 110.45055810088516 6.16637363357899, 116.90310110136573 10.206847362761224 C123.35564410184631 14.247321091943457, 128.9614396569739 21.311379088655205, 129.10529150203052 26.219916977254154 C129.24914334708714 31.128454865853104, 123.7989539408615 36.20736856877659, 117.76621217170546 39.658074694354916 C111.73347040254943 43.108780819933244, 102.902770716135 44.98031688553183, 92.90884088709433 46.92415373072413 C82.91491105805366 48.86799057591643, 69.15098068195744 51.92666274742855, 57.80263319746148 51.321095765508716 C46.454285712965536 50.71552878358888, 34.1280770585322 46.432796046422894, 24.818755980118638 43.290751839205114 C15.50943490170508 40.148707631987335, 5.744378534198866 36.26972916942718, 1.946706726980132 32.468830522202055 C-1.850965080238602 28.667931874976926, -0.7647132113624537 24.617668450788056, 2.032725136806235 20.485359955854342 C4.830163484974923 16.35305146092063, 10.606191670615962 10.915013226997594, 18.731336815992265 7.674979552599773 C26.856481961368566 4.434945878201951, 39.294359667213016 1.836685172653949, 50.78359600906405 1.045157909467413 C62.27283235091508 0.25363064628087706, 80.90053861125858 2.6362915111847687, 87.66675486709845 2.9258159734805567 C94.43297112293831 3.2153404357763447, 90.88013919364369 2.603726418986033, 91.38089354410323 2.782304683242142 C91.88164789456278 2.9608829474982508, 91.39663291364995 3.6913374685261418, 90.6712809698557 3.997285559017211" stroke="#000000" stroke-width="1" fill="none"></path></g><g><g transform="translate(632.102764423077 359.19711538461536) rotate(0 -32.85975926314012 34.66606501233298)"><path d="M-0.1965338308364153 0.3154516953974962 C-11.164054842665792 11.699184471244612, -55.53288334198296 57.540673098837345, -66.6671489674598 68.79516049809754 M0.9476304411794989 0.3890261755976825 C-10.301435712883249 11.8371982043578, -55.7563269621227 57.383685333787774, -66.61341522426345 69.01667832926847" stroke="#000000" stroke-width="1" fill="none"></path></g><g transform="translate(632.102764423077 359.19711538461536) rotate(0 -32.85975926314012 34.66606501233298)"><path d="M-53.82556054676988 40.251755796020475 C-57.38457195007482 45.92042845383643, -61.77032547124789 55.073953123814434, -66.25533199288883 70.05234001361765 M-53.45457109465369 42.283598896694926 C-57.65653425549502 51.14046383035767, -62.69915187060017 59.764988544661136, -66.05375136879273 68.55064575624652" stroke="#000000" stroke-width="1" fill="none"></path></g><g transform="translate(632.102764423077 359.19711538461536) rotate(0 -32.85975926314012 34.66606501233298)"><path d="M-39.09509900326941 54.53928550207161 C-46.073752426145035 56.92392210949652, -53.82047814984593 62.81753601272625, -66.25533199288883 70.05234001361765 M-38.72410955115322 56.57112860274606 C-47.59765442700841 60.839034669509644, -57.37255450074057 64.87357243700961, -66.05375136879273 68.55064575624652" stroke="#000000" stroke-width="1" fill="none"></path></g></g><g><g transform="translate(682.509014423077 367.91977163461536) rotate(0 -0.7660782002753308 32.268001461573846)"><path d="M0.3154516953974962 -0.8312114674597979 C-0.08687270779636269 9.628208494108788, -1.389612796367544 51.70413920393523, -1.921182576148317 62.5599859385751 M0.3890261755976825 -0.7774777242634445 C0.05114102531682185 9.959119600641227, -1.546600561417106 54.38773249653477, -1.6996647449773854 65.36721439060753" stroke="#000000" stroke-width="1" fill="none"></path></g><g transform="translate(682.509014423077 367.91977163461536) rotate(0 -0.7660782002753308 32.268001461573846)"><path d="M-12.592486008152294 36.565692789352056 C-9.95473246209489 44.65721875590467, -3.8056087412142325 56.65567845711035, -0.6640030606282061 65.79237960983997 M-10.560642907477844 37.66400544574719 C-8.050246318507986 43.802660294463315, -5.77331999945082 52.042465618094674, -2.1656973179993337 65.50888204813933" stroke="#000000" stroke-width="1" fill="none"></path></g><g transform="translate(682.509014423077 367.91977163461536) rotate(0 -0.7660782002753308 32.268001461573846)"><path d="M7.921468407463708 37.11129027822838 C3.563551280768664 45.07065911933588, 2.716110759192012 56.883035347598835, -0.6640030606282061 65.79237960983997 M9.953311508138158 38.20960293462352 C7.181021540360893 44.391715614395075, 4.1752993814380215 52.49102146699279, -2.1656973179993337 65.50888204813933" stroke="#000000" stroke-width="1" fill="none"></path></g></g><g><g transform="translate(741.395733173077 355.52524038461536) rotate(0 32.86505102220457 37.77732233579735)"><path d="M-0.8312114674597979 -0.20874575190246103 C9.827225014319014 11.975142693193625, 52.69922180498636 60.91813099668359, 63.75408505983646 73.41878236597401 M-0.7774777242634445 0.01277207926847046 C10.158136120851454 12.57516612058505, 55.3828150975859 63.11995806926859, 66.56131351186889 75.76339042349716" stroke="#000000" stroke-width="1" fill="none"></path></g><g transform="translate(741.395733173077 355.52524038461536) rotate(0 32.86505102220457 37.77732233579735)"><path d="M39.808197029580015 59.58018099339134 C45.74675782364548 66.70821011195133, 55.52982701671962 70.8197051252382, 66.98647873110133 74.91368799260815 M40.90650968597515 62.23041784306443 C47.870876733307085 66.1701282620792, 56.72344461479367 69.45070330864053, 66.70298116940069 76.2028871409129" stroke="#000000" stroke-width="1" fill="none"></path></g><g transform="translate(741.395733173077 355.52524038461536) rotate(0 32.86505102220457 37.77732233579735)"><path d="M55.13885419284295 45.938665193146335 C56.76516089711568 56.82953895491171, 62.200115673005584 64.8100704283856, 66.98647873110133 74.91368799260815 M56.237166849238086 48.58890204281943 C58.71396629483257 56.72969926130927, 62.956637335071036 64.11224984144917, 66.70298116940069 76.2028871409129" stroke="#000000" stroke-width="1" fill="none"></path></g></g><g transform="translate(611.106670673077 312.00180288461536) rotate(0 70.353515625 26.3515625)"><path d="M38.13601792446152 3.2389474163841463 C47.66282003935028 0.8792900596195143, 61.78792794328661 -0.27830069764069165, 73.89719079698777 0.04893673889674233 C86.00645365068894 0.3761741754341763, 100.61635276452797 2.5458216818193904, 110.79159504666849 5.20237203560875 C120.966837328809 7.85892238939811, 130.08845324821314 11.905703333677309, 134.94864448983085 15.988238861632901 C139.80883573144857 20.070774389588493, 141.27149588833504 25.399626011431884, 139.95274249637478 29.69758520334231 C138.63398910441452 33.995544395252736, 134.22929900168506 38.18687086321164, 127.03612413806934 41.77599401309545 C119.84294927445362 45.36511716297926, 107.91996929473383 49.364593026569366, 96.79369331468043 51.23232410264518 C85.66741733462702 53.10005517872099, 72.11112027693368 53.71698107422972, 60.27846825774892 52.98238046955032 C48.445816238564156 52.24777986487092, 35.16074796061997 49.84667640575641, 25.79778119957186 46.82472047456879 C16.434814438523745 43.80276454338117, 8.263565528630359 39.112817943154255, 4.100667691460231 34.850644882424604 C-0.062230145709897045 30.58847182169495, -1.6567207265362724 25.61685782190701, 0.8203941765510905 21.251682110190863 C3.2975090796384534 16.886506398474715, 12.662998682506633 11.714222485953059, 18.963357109984408 8.659590612127712 C25.263715537462183 5.604958738302365, 34.660401186608084 3.8415015692957453, 38.622544741417734 2.923890867238782 C42.584688296227384 2.006280165181819, 42.219056457285284 2.799045490939792, 42.736218438842286 3.1539263997859344 M64.6921370947085 1.4670113894079897 C76.01759095079626 1.0732361934709267, 89.05971747867868 2.195516948760533, 99.95636778108047 3.748281223224822 C110.85301808348227 5.3010454976891115, 123.07437406478077 7.0433790775603775, 130.07203890911927 10.783597036193727 C137.0697037534578 14.523814994827077, 141.35053452438444 21.76481525331755, 141.9423568471115 26.189588975024925 C142.53417916983858 30.6143626967323, 139.74548935972751 33.65729829899087, 133.6229728454817 37.33223936643798 C127.50045633123592 41.0071804338851, 115.71358360776215 45.4540302598516, 105.20725776163677 48.239235379707615 C94.70093191551139 51.02444049956363, 82.57561842709872 53.81004168937956, 70.58501776872947 54.043470085574086 C58.59441711036022 54.27689848176861, 43.71941073442621 52.093895014474015, 33.263653811421264 49.63980575687479 C22.807896888416316 47.18571649927557, 13.222091907892509 43.21036870940857, 7.8504762306997975 39.318934539978756 C2.4788605535070873 35.42750037054894, 0.19203478633172943 30.813171150167403, 1.033959748265005 26.29120074029589 C1.8758847101982803 21.769230330424374, 6.20820512882084 15.940576737276821, 12.90202600229945 12.187112080749662 C19.59584687577806 8.433647424222503, 32.9258037654368 5.7707706459663575, 41.19688498913667 3.770412801132938 C49.467966212836544 1.7700549562995187, 58.65921710290111 0.570780048906153, 62.52851334449868 0.1849650117491457 C66.39780958609624 -0.20085002540786157, 64.38244012810003 1.0030079504845066, 64.4126624387221 1.4555225781908945" stroke="#000000" stroke-width="1" fill="none"></path></g><g transform="translate(650.737530048077 326.90609975961536) rotate(0 31.5 12.5)"><text x="0" y="18" font-family="Virgil" font-size="20px" fill="#000000" text-anchor="start">parent</text></g><g transform="translate(504.934795673077 438.99399038461536) rotate(0 30.5 12.5)"><text x="0" y="18" font-family="Virgil" font-size="20px" fill="#000000" text-anchor="start">key: A</text></g><g transform="translate(616.555889423077 433.11508413461536) rotate(0 63.8203125 25.15234375)"><path d="M80.16735155989 1.7351143180907158 C90.93849205130331 2.6816444486864968, 103.46574368933199 5.735157833901235, 111.32234757854226 8.825417895054983 C119.17895146775254 11.91567795620873, 125.27566301263231 15.888873684781913, 127.30697489515163 20.276674685013205 C129.33828677767096 24.664475685244497, 127.98426944976161 30.905421493674535, 123.5102188736582 35.15222389644273 C119.0361682975548 39.39902629921092, 109.75333746363944 43.080736000541826, 100.46267143853115 45.757489101622355 C91.17200541342285 48.43424220270288, 78.97042787319523 50.88219065300771, 67.7662227230084 51.21274250292589 C56.56201757282156 51.54329435284407, 43.210081527078614 50.053461320416844, 33.23744053741011 47.74080020113143 C23.264799547741603 45.42813908184601, 13.461035262207592 41.513667750414626, 7.930376784997371 37.33677578721338 C2.3997183077871505 33.15988382401213, -0.7628380660018289 27.172250214638265, 0.05348967414878558 22.67944842192391 C0.8698174142994001 18.18664662920956, 5.996512609000567 14.014881045404257, 12.828343225901058 10.379965030927256 C19.660173842801548 6.745049016450254, 30.426427457239395 2.3760459625843025, 41.04447337555173 0.8699523350619032 C51.662519293864065 -0.6361412924604963, 68.4346263130556 1.2737601592270977, 76.53661873577508 1.3434032657928583 C84.63861115849456 1.4130463723586189, 86.20536560652174 0.8261907114063476, 89.65642791186858 1.287810974456466 C93.10749021721541 1.7494312375065846, 97.77058337116787 3.732265186959952, 97.24299256785613 4.113124844093569 M95.07228035128776 4.26976871859037 C104.68547715980213 6.233853562651263, 112.84898772683307 10.188221923133087, 118.46117725086145 14.072151474814834 C124.07336677488983 17.956081026496584, 129.40002532585393 23.537494148252577, 128.745417495458 27.57334602868086 C128.0908096650621 31.60919790910914, 121.42673738804694 34.78259151864059, 114.533530268486 38.28726275738453 C107.64032314892506 41.79193399612848, 97.47223531490808 46.81839293176382, 87.38617477809241 48.60137346114455 C77.30011424127675 50.38435399052528, 65.01141864038465 49.875354344216284, 54.01716704759205 48.9851459336689 C43.02291545479945 48.09493752312152, 29.962594080070197 45.97972852134499, 21.420665221336833 43.26012299786025 C12.878736362603467 40.54051747437551, 5.64794278397498 36.762880934770244, 2.7655938951918557 32.66751279276048 C-0.11675499359126817 28.57214465075072, 0.7515342510033229 22.999051580746194, 4.1265718886380895 18.68791414580167 C7.501609526272857 14.376776710857147, 14.32434933997842 9.991176685971617, 23.015819721000454 6.800688183093339 C31.70729010202249 3.6101996802150613, 45.05973312147637 0.12740032257850054, 56.2753941747703 -0.4550168714679934 C67.49105522806423 -1.0374340655144874, 83.91950012651333 2.942791737929786, 90.30978604076401 3.306185018814375 C96.70007195501469 3.6695782996989643, 94.10801690831619 1.8335838889701883, 94.61710966027441 1.7253428138395428 C95.12620241223263 1.6171017387088973, 93.78209531090717 2.123093588854349, 93.3643425525133 2.6567385680305016" stroke="#000000" stroke-width="1" fill="none"></path></g><g transform="translate(648.981670673077 445.54867788461536) rotate(0 32 12.5)"><text x="0" y="18" font-family="Virgil" font-size="20px" fill="#000000" text-anchor="start">key: C</text></g><g transform="translate(763.755108173077 430.55258413461536) rotate(0 63.8203125 25.15234375)"><path d="M51.011464327324525 1.3157674893448643 C61.52516702071349 -0.1383548867624793, 75.91950064206482 -0.32293801744236883, 86.5974399821429 1.1989937267870623 C97.27537932222099 2.7209254710164936, 108.35609965371397 6.794089311827932, 115.07910036779302 10.44735795472145 C121.80210108187207 14.10062659761497, 125.96542964299807 18.57822260050444, 126.93544426661721 23.118605584148174 C127.90545889023635 27.65898856779191, 125.97428917397042 33.61865027004683, 120.8991881095078 37.68965585658387 C115.82408704504519 41.76066144312091, 106.36857225985877 45.40481085000308, 96.48483787984156 47.54463910337043 C86.60110349982436 49.68446735673778, 73.10641695094415 50.927510525969744, 61.59678182940459 50.52862537678794 C50.08714670786503 50.12974022760614, 36.7956885194092 47.71708810161035, 27.427027150604204 45.15132820827962 C18.05836578179921 42.585568314948894, 9.772349218258903 39.292991522155184, 5.384813616574618 35.134066016803565 C0.9972780148903349 30.975140511451947, -0.7562324575565011 24.515751598934965, 1.1018135404985046 20.197775176169912 C2.95985953855351 15.87979875340486, 8.911265209871065 12.570334318239633, 16.533089604904653 9.226207480213251 C24.15491399993824 5.882080642186869, 39.531476917637875 1.6982945757008494, 46.83275991070004 0.13301414801161826 C54.13404290376221 -1.4322662796776129, 56.48523700112954 -0.11063221178740137, 60.34078756327763 -0.1654750859221359 C64.19633812542571 -0.2203179600568704, 69.74592184216372 -0.7963887537180158, 69.96606328358857 -0.19604309679678877 M56.718652203448805 1.4471189305836312 C67.39801669347622 0.654172752944533, 83.69599661502346 2.2998667172439706, 93.78252375864844 3.874401304922639 C103.86905090227341 5.448935892601307, 111.71564970423233 7.199279015507685, 117.2378150651987 10.894326456655643 C122.75998042616507 14.5893738978036, 126.77814972523218 21.478919430316903, 126.91551592444662 26.04468595181039 C127.05288212366106 30.610452473303877, 124.20838780607477 34.67050589974279, 118.06201226048532 38.28892558561655 C111.91563671489587 41.907345271490314, 100.616508911163 45.64433934701666, 90.03726265090997 47.75520406705297 C79.45801639065694 49.86606878708928, 65.7569678489325 51.40139219901679, 54.586534698967164 50.95411390583443 C43.41610154900182 50.506835612652075, 31.597543589062994 48.05298812237339, 23.01466375111793 45.071534307958814 C14.431783913172866 42.090080493544235, 6.301805553840797 37.65866949292446, 3.089255671296783 33.06539101934698 C-0.12329421124723083 28.472112545769505, 0.6668797769350951 21.79271132857862, 3.7393644558538455 17.511863466493942 C6.811849134772595 13.231015604409265, 13.072282574689948 10.449942159765632, 21.524163744809286 7.380303846838913 C29.97604491492862 4.310665533912195, 48.41537810463397 0.4273588548573397, 54.450651476569874 -0.9059664110663661 C60.485924848505775 -2.2392916769900717, 56.97646240410226 -0.8332218541206053, 57.73580397642471 -0.6196477487033221 C58.49514554874717 -0.4060736432860388, 59.041205779747315 0.019003936199374294, 59.00670091050461 0.37547822143733356" stroke="#000000" stroke-width="1" fill="none"></path></g><g transform="translate(796.688701923077 442.98617788461536) rotate(0 31 12.5)"><text x="0" y="18" font-family="Virgil" font-size="20px" fill="#000000" text-anchor="start">key: B</text></g><g transform="translate(10 158.51081730769286) rotate(0 201 103.5)"><text x="0" y="18" font-family="Helvetica" font-size="20px" fill="#000000" text-anchor="start">supply the key prop to every child in a list!</text><text x="0" y="41" font-family="Helvetica" font-size="20px" fill="#000000" text-anchor="start"></text><text x="0" y="64" font-family="Helvetica" font-size="20px" fill="#000000" text-anchor="start">without keys, baahu diffs nodes by their</text><text x="0" y="87" font-family="Helvetica" font-size="20px" fill="#000000" text-anchor="start">position in the tree.</text><text x="0" y="110" font-family="Helvetica" font-size="20px" fill="#000000" text-anchor="start"></text><text x="0" y="133" font-family="Helvetica" font-size="20px" fill="#000000" text-anchor="start">typically, that is the behavior that you want,</text><text x="0" y="156" font-family="Helvetica" font-size="20px" fill="#000000" text-anchor="start">but when the elements of a list move around,</text><text x="0" y="179" font-family="Helvetica" font-size="20px" fill="#000000" text-anchor="start">this will result in unwanted and unpredictable </text><text x="0" y="202" font-family="Helvetica" font-size="20px" fill="#000000" text-anchor="start">behavior.</text></g></svg>