<svg version="1.1" xmlns="http://www.w3.org/2000/svg" viewBox="0 0 395.21484375 318.2181682180851">
  <!-- svg-source:excalidraw -->
  <defs>
    <style>
      @font-face {
        font-family: "Virgil";
        src: url("https://excalidraw.com/FG_Virgil.woff2");
      }
      @font-face {
        font-family: "Cascadia";
        src: url("https://excalidraw.com/Cascadia.woff2");
      }
    </style>
  </defs>
  <rect x="0" y="0" width="395.21484375" height="318.2181682180851" fill="#ffffff"></rect><g transform="translate(10 49.19863696808514) rotate(0 187.572265625 129.451171875)"><path d="M0 0 C124.92162458112179 0, 249.84324916224358 0, 375.14453124999994 0 M0 0 C108.4478817187406 0, 216.8957634374812 0, 375.14453124999994 0 M375.14453124999994 0 C375.14453124999994 88.98903117423434, 375.14453124999994 177.97806234846868, 375.14453124999994 258.90234375 M375.14453124999994 0 C375.14453124999994 89.65663278719039, 375.14453124999994 179.31326557438078, 375.14453124999994 258.90234375 M375.14453124999994 258.90234375 C259.5916344365086 258.90234375, 144.03873762301734 258.90234375, 0 258.90234375 M375.14453124999994 258.90234375 C239.00348437373356 258.90234375, 102.86243749746717 258.90234375, 0 258.90234375 M0 258.90234375 C0 157.37020411762387, 0 55.83806448524774, 0 0 M0 258.90234375 C0 198.53832770908156, 0 138.1743116681631, 0 0" stroke="#000000" stroke-width="1" fill="none"></path></g><g transform="translate(142.27260638297878 10) rotate(0 50.5 11.5)"><text x="0" y="18" font-family="Helvetica" font-size="20px" fill="#000000" text-anchor="start" style="white-space: pre;">Login Page</text></g><g transform="translate(10.09765625 49.17129321808514) rotate(0 187.55859375 14.830078125)"><path d="M0 0 C131.133158577617 0, 262.266317155234 0, 375.11718749999994 0 M0 0 C83.26115873041634 0, 166.52231746083268 0, 375.11718749999994 0 M375.11718749999994 0 C375.11718749999994 10.826504741868487, 375.11718749999994 21.653009483736973, 375.11718749999994 29.66015625 M375.11718749999994 0 C375.11718749999994 10.00736738274827, 375.11718749999994 20.01473476549654, 375.11718749999994 29.66015625 M375.11718749999994 29.66015625 C235.21045338198377 29.66015625, 95.3037192639676 29.66015625, 0 29.66015625 M375.11718749999994 29.66015625 C248.98348556104972 29.66015625, 122.8497836220995 29.66015625, 0 29.66015625 M0 29.66015625 C0 18.61490832958043, 0 7.569660409160861, 0 0 M0 29.66015625 C0 18.527015950656278, 0 7.393875651312555, 0 0" stroke="#000000" stroke-width="1" fill="none"></path></g><g transform="translate(141.8203125 55.31973071808514) rotate(0 52.021484375 7.953125)"><path d="M0 0 C40.34875589705007 0, 80.69751179410014 0, 104.04296875 0 M0 0 C26.662579542842654 0, 53.32515908568531 0, 104.04296875 0 M104.04296875 0 C104.04296875 5.70227137048787, 104.04296875 11.40454274097574, 104.04296875 15.90625 M104.04296875 0 C104.04296875 4.311937745343312, 104.04296875 8.623875490686624, 104.04296875 15.90625 M104.04296875 15.90625 C63.97133989035683 15.90625, 23.89971103071366 15.90625, 0 15.90625 M104.04296875 15.90625 C74.10054273577225 15.90625, 44.158116721544495 15.90625, 0 15.90625 M0 15.90625 C0 10.16923420271778, 0 4.43221840543556, 0 0 M0 15.90625 C0 12.269230393823818, 0 8.632210787647637, 0 0" stroke="#000000" stroke-width="1" fill="none"></path></g><g transform="translate(10.20703125 272.2611369680851) rotate(0 187.384765625 17.978515625)"><path d="M0 0 C130.0448759241885 0, 260.089751848377 0, 374.76953125000006 0 M0 0 C108.65948826951391 0, 217.31897653902783 0, 374.76953125000006 0 M374.76953125000006 0 C374.76953125000006 14.037455680370838, 374.76953125000006 28.074911360741677, 374.76953125000006 35.95703124999999 M374.76953125000006 0 C374.76953125000006 9.214221156058555, 374.76953125000006 18.42844231211711, 374.76953125000006 35.95703124999999 M374.76953125000006 35.95703124999999 C230.17955167175572 35.95703124999999, 85.58957209351138 35.95703124999999, 0 35.95703124999999 M374.76953125000006 35.95703124999999 C250.76149937320554 35.95703124999999, 126.75346749641102 35.95703124999999, 0 35.95703124999999 M0 35.95703124999999 C0 27.120445100650606, 0 18.283858951301223, 0 0 M0 35.95703124999999 C0 28.449082246543178, 0 20.941133243086366, 0 0" stroke="#000000" stroke-width="1" fill="none"></path></g><g transform="translate(186.541015625 275.4759807180851) rotate(0 13.29296875 13.056640625)"><path d="M13.292968750000005 0 C15.998744692675956 -0.16669944994304586, 19.655687910858873 1.2564438327477936, 21.837524358450374 3.05467362841725 C24.019360806041874 4.852903424086707, 25.889405265421956 8.034330889169613, 26.38398743554901 10.789378774016738 C26.878569605676063 13.544426658863863, 26.22910998062108 17.162212487741787, 24.805017379212686 19.584960937499996 C23.380924777804292 22.007709387258206, 20.515850444817197 24.369051383388335, 17.839431827098643 25.325869472566005 C15.16301320938009 26.282687561743675, 11.422924290619921 26.28268756174368, 8.746505672901367 25.32586947256601 C6.070087055182814 24.36905138338834, 3.205012722195719 22.00770938725821, 1.780920120787325 19.584960937499996 C0.35682751937893076 17.162212487741783, -0.29263210567605064 13.54442665886386, 0.20195006445100105 10.789378774016736 C0.6965322345780527 8.034330889169611, 2.566576693958135 4.8529034240867075, 4.748413141549635 3.0546736284172518 C6.930249589141136 1.2564438327477958, 11.868876148591609 0.4655901359862087, 13.292968750000004 0 C14.717061351408399 -0.4655901359862087, 13.292968750000005 0.0435221354166663, 13.292968750000005 0.26113281249999964 M13.292968750000005 0 C15.998744692675956 -0.16669944994304586, 19.655687910858873 1.2564438327477936, 21.837524358450374 3.05467362841725 C24.019360806041874 4.852903424086707, 25.889405265421956 8.034330889169613, 26.38398743554901 10.789378774016738 C26.878569605676063 13.544426658863863, 26.22910998062108 17.162212487741787, 24.805017379212686 19.584960937499996 C23.380924777804292 22.007709387258206, 20.515850444817197 24.369051383388335, 17.839431827098643 25.325869472566005 C15.16301320938009 26.282687561743675, 11.422924290619921 26.28268756174368, 8.746505672901367 25.32586947256601 C6.070087055182814 24.36905138338834, 3.205012722195719 22.00770938725821, 1.780920120787325 19.584960937499996 C0.35682751937893076 17.162212487741783, -0.29263210567605064 13.54442665886386, 0.20195006445100105 10.789378774016736 C0.6965322345780527 8.034330889169611, 2.566576693958135 4.8529034240867075, 4.748413141549635 3.0546736284172518 C6.930249589141136 1.2564438327477958, 11.868876148591609 0.4655901359862087, 13.292968750000004 0 C14.717061351408399 -0.4655901359862087, 13.292968750000005 0.0435221354166663, 13.292968750000005 0.26113281249999964" stroke="#000000" stroke-width="1" fill="none"></path></g><g><g transform="translate(195.205078125 280.7767619680851) rotate(0 6.266039062499999 7.585931152343761)"><path d="M0 0 C0.0400390625 2.5042317708333335, -1.98046875 13.809895833333334, 0.240234375 15.025390625 C2.4609375 16.240885416666668, 13.3642578125 9.797200520833334, 13.32421875 7.29296875 C13.2841796875 4.788736979166666, 2.220703125 1.2154947916666667, 0 0 M0 0 C0.0400390625 2.5042317708333335, -1.98046875 13.809895833333334, 0.240234375 15.025390625 C2.4609375 16.240885416666668, 13.3642578125 9.797200520833334, 13.32421875 7.29296875 C13.2841796875 4.788736979166666, 2.220703125 1.2154947916666667, 0 0" stroke="#000000" stroke-width="1" fill="none"></path></g></g><g transform="translate(36.611328125 280.6908244680851) rotate(0 59 9)"><text x="0" y="14" font-family="Helvetica" font-size="16px" fill="#000000" text-anchor="start" style="white-space: pre;">current song title</text></g><g transform="translate(258.78125 280.0794963430851) rotate(0 37 9)"><text x="0" y="14" font-family="Helvetica" font-size="16px" fill="#000000" text-anchor="start" style="white-space: pre;">timestamp</text></g><g transform="translate(119.89926861701997 108.92968750000014) rotate(0 73.88214760638294 14.511303191489361)"><path d="M0 0 C57.36204149588142 0, 114.72408299176284 0, 147.7642952127659 0 M0 0 C34.423374184912724 0, 68.84674836982545 0, 147.7642952127659 0 M147.7642952127659 0 C147.7642952127659 7.0335072692901015, 147.7642952127659 14.067014538580203, 147.7642952127659 29.022606382978715 M147.7642952127659 0 C147.7642952127659 7.278692152798842, 147.7642952127659 14.557384305597685, 147.7642952127659 29.022606382978715 M147.7642952127659 29.022606382978715 C111.79644707406811 29.022606382978715, 75.82859893537035 29.022606382978715, 0 29.022606382978715 M147.7642952127659 29.022606382978715 C89.06365148717161 29.022606382978715, 30.363007761577336 29.022606382978715, 0 29.022606382978715 M0 29.022606382978715 C0 20.540085305342757, 0 12.057564227706798, 0 0 M0 29.022606382978715 C0 20.861370742467766, 0 12.700135101956818, 0 0" stroke="#000000" stroke-width="1" fill="none"></path></g><g transform="translate(145.46858377659544 202.35139627659575) rotate(0 46.85629986702128 14.737782579787222)"><path d="M0 0 C25.157885623621237 0, 50.31577124724247 0, 93.71259973404256 0 M0 0 C32.81028039815631 0, 65.62056079631262 0, 93.71259973404256 0 M93.71259973404256 0 C93.71259973404256 7.527061753397838, 93.71259973404256 15.054123506795676, 93.71259973404256 29.475565159574444 M93.71259973404256 0 C93.71259973404256 7.308188916044753, 93.71259973404256 14.616377832089507, 93.71259973404256 29.475565159574444 M93.71259973404256 29.475565159574444 C60.10936146684663 29.475565159574444, 26.506123199650702 29.475565159574444, 0 29.475565159574444 M93.71259973404256 29.475565159574444 C61.350004193568466 29.475565159574444, 28.987408653094377 29.475565159574444, 0 29.475565159574444 M0 29.475565159574444 C0 20.580341254735668, 0 11.685117349896892, 0 0 M0 29.475565159574444 C0 22.097558335911888, 0 14.71955151224933, 0 0" stroke="#000000" stroke-width="1" fill="none"></path></g><g transform="translate(175.32488364361632 208.08917885638309) rotate(0 17 9)"><text x="0" y="14" font-family="Helvetica" font-size="16px" fill="#000000" text-anchor="start" style="white-space: pre;">login</text></g><g transform="translate(156.63580452127553 113.8820644946808) rotate(0 35.5 9)"><text x="0" y="14" font-family="Helvetica" font-size="16px" fill="#000000" text-anchor="start" style="white-space: pre;">username</text></g><g transform="translate(120.46858377659589 149.70844414893637) rotate(0 73.88214760638294 14.511303191489361)"><path d="M0 0 C53.66942081115181 0, 107.33884162230362 0, 147.7642952127659 0 M0 0 C43.94677269610372 0, 87.89354539220744 0, 147.7642952127659 0 M147.7642952127659 0 C147.7642952127659 6.901254319623631, 147.7642952127659 13.802508639247263, 147.7642952127659 29.022606382978715 M147.7642952127659 0 C147.7642952127659 10.685398879413308, 147.7642952127659 21.370797758826615, 147.7642952127659 29.022606382978715 M147.7642952127659 29.022606382978715 C91.93958415010547 29.022606382978715, 36.114873087445076 29.022606382978715, 0 29.022606382978715 M147.7642952127659 29.022606382978715 C96.06948955137105 29.022606382978715, 44.3746838899762 29.022606382978715, 0 29.022606382978715 M0 29.022606382978715 C0 19.734293747556443, 0 10.445981112134174, 0 0 M0 29.022606382978715 C0 19.145198952474132, 0 9.267791521969553, 0 0" stroke="#000000" stroke-width="1" fill="none"></path></g><g transform="translate(158.70511968085145 154.66082114361703) rotate(0 34 9)"><text x="0" y="14" font-family="Helvetica" font-size="16px" fill="#000000" text-anchor="start" style="white-space: pre;">password</text></g></svg>