<svg version="1.1" xmlns="http://www.w3.org/2000/svg" viewBox="0 0 395.21484375 318.48828125">
  <!-- svg-source:excalidraw -->
  <defs>
    <style>
      @font-face {
        font-family: "Virgil";
        src: url("https://excalidraw.com/FG_Virgil.woff2");
      }
      @font-face {
        font-family: "Cascadia";
        src: url("https://excalidraw.com/Cascadia.woff2");
      }
    </style>
  </defs>
  <rect x="0" y="0" width="395.21484375" height="318.48828125" fill="#ffffff"></rect><g transform="translate(10 49.46875) rotate(0 187.572265625 129.451171875)"><path d="M0 0 C124.92162458112179 0, 249.84324916224358 0, 375.14453124999994 0 M0 0 C108.4478817187406 0, 216.8957634374812 0, 375.14453124999994 0 M375.14453124999994 0 C375.14453124999994 88.98903117423434, 375.14453124999994 177.97806234846868, 375.14453124999994 258.90234375 M375.14453124999994 0 C375.14453124999994 89.65663278719039, 375.14453124999994 179.31326557438078, 375.14453124999994 258.90234375 M375.14453124999994 258.90234375 C259.5916344365086 258.90234375, 144.03873762301734 258.90234375, 0 258.90234375 M375.14453124999994 258.90234375 C239.00348437373356 258.90234375, 102.86243749746717 258.90234375, 0 258.90234375 M0 258.90234375 C0 157.37020411762387, 0 55.83806448524774, 0 0 M0 258.90234375 C0 198.53832770908156, 0 138.1743116681631, 0 0" stroke="#000000" stroke-width="1" fill="none"></path></g><g transform="translate(135.046875 10) rotate(0 58 11.5)"><text x="0" y="18" font-family="Helvetica" font-size="20px" fill="#000000" text-anchor="start" style="white-space: pre;">Search Page</text></g><g transform="translate(10.09765625 49.44140625) rotate(0 187.55859375 14.830078125)"><path d="M0 0 C131.133158577617 0, 262.266317155234 0, 375.11718749999994 0 M0 0 C83.26115873041634 0, 166.52231746083268 0, 375.11718749999994 0 M375.11718749999994 0 C375.11718749999994 10.826504741868487, 375.11718749999994 21.653009483736973, 375.11718749999994 29.66015625 M375.11718749999994 0 C375.11718749999994 10.00736738274827, 375.11718749999994 20.01473476549654, 375.11718749999994 29.66015625 M375.11718749999994 29.66015625 C235.21045338198377 29.66015625, 95.3037192639676 29.66015625, 0 29.66015625 M375.11718749999994 29.66015625 C248.98348556104972 29.66015625, 122.8497836220995 29.66015625, 0 29.66015625 M0 29.66015625 C0 18.61490832958043, 0 7.569660409160861, 0 0 M0 29.66015625 C0 18.527015950656278, 0 7.393875651312555, 0 0" stroke="#000000" stroke-width="1" fill="none"></path></g><g transform="translate(141.8203125 55.58984375) rotate(0 52.021484375 7.953125)"><path d="M0 0 C40.34875589705007 0, 80.69751179410014 0, 104.04296875 0 M0 0 C26.662579542842654 0, 53.32515908568531 0, 104.04296875 0 M104.04296875 0 C104.04296875 5.70227137048787, 104.04296875 11.40454274097574, 104.04296875 15.90625 M104.04296875 0 C104.04296875 4.311937745343312, 104.04296875 8.623875490686624, 104.04296875 15.90625 M104.04296875 15.90625 C63.97133989035683 15.90625, 23.89971103071366 15.90625, 0 15.90625 M104.04296875 15.90625 C74.10054273577225 15.90625, 44.158116721544495 15.90625, 0 15.90625 M0 15.90625 C0 10.16923420271778, 0 4.43221840543556, 0 0 M0 15.90625 C0 12.269230393823818, 0 8.632210787647637, 0 0" stroke="#000000" stroke-width="1" fill="none"></path></g><g transform="translate(10.20703125 272.53125) rotate(0 187.384765625 17.978515625)"><path d="M0 0 C130.0448759241885 0, 260.089751848377 0, 374.76953125000006 0 M0 0 C108.65948826951391 0, 217.31897653902783 0, 374.76953125000006 0 M374.76953125000006 0 C374.76953125000006 14.037455680370838, 374.76953125000006 28.074911360741677, 374.76953125000006 35.95703124999999 M374.76953125000006 0 C374.76953125000006 9.214221156058555, 374.76953125000006 18.42844231211711, 374.76953125000006 35.95703124999999 M374.76953125000006 35.95703124999999 C230.17955167175572 35.95703124999999, 85.58957209351138 35.95703124999999, 0 35.95703124999999 M374.76953125000006 35.95703124999999 C250.76149937320554 35.95703124999999, 126.75346749641102 35.95703124999999, 0 35.95703124999999 M0 35.95703124999999 C0 27.120445100650606, 0 18.283858951301223, 0 0 M0 35.95703124999999 C0 28.449082246543178, 0 20.941133243086366, 0 0" stroke="#000000" stroke-width="1" fill="none"></path></g><g transform="translate(137.703125 90.20703125) rotate(0 54.5 9)"><text x="0" y="14" font-family="Helvetica" font-size="16px" fill="#000000" text-anchor="start" style="white-space: pre;">Search Results</text></g><g transform="translate(46.65234375 118.23828125) rotate(0 149.708984375 17.55078125)"><path d="M0 0 C98.67419977311692 0, 197.34839954623385 0, 299.41796875 0 M0 0 C93.26710386859887 0, 186.53420773719773 0, 299.41796875 0 M299.41796875 0 C299.41796875 12.322782827380435, 299.41796875 24.64556565476087, 299.41796875 35.1015625 M299.41796875 0 C299.41796875 9.701566498433387, 299.41796875 19.403132996866773, 299.41796875 35.1015625 M299.41796875 35.1015625 C196.24278263044363 35.1015625, 93.06759651088723 35.1015625, 0 35.1015625 M299.41796875 35.1015625 C225.13249363187532 35.1015625, 150.84701851375064 35.1015625, 0 35.1015625 M0 35.1015625 C0 25.048226003183665, 0 14.994889506367326, 0 0 M0 35.1015625 C0 24.789911417164696, 0 14.478260334329388, 0 0" stroke="#000000" stroke-width="1" fill="none"></path></g><g transform="translate(314.607421875 121.810546875) rotate(0 13.29296875 13.056640625)"><path d="M13.292968750000005 0 C15.998744692675956 -0.16669944994304586, 19.655687910858873 1.2564438327477936, 21.837524358450374 3.05467362841725 C24.019360806041874 4.852903424086707, 25.889405265421956 8.034330889169613, 26.38398743554901 10.789378774016738 C26.878569605676063 13.544426658863863, 26.22910998062108 17.162212487741787, 24.805017379212686 19.584960937499996 C23.380924777804292 22.007709387258206, 20.515850444817197 24.369051383388335, 17.839431827098643 25.325869472566005 C15.16301320938009 26.282687561743675, 11.422924290619921 26.28268756174368, 8.746505672901367 25.32586947256601 C6.070087055182814 24.36905138338834, 3.205012722195719 22.00770938725821, 1.780920120787325 19.584960937499996 C0.35682751937893076 17.162212487741783, -0.29263210567605064 13.54442665886386, 0.20195006445100105 10.789378774016736 C0.6965322345780527 8.034330889169611, 2.566576693958135 4.8529034240867075, 4.748413141549635 3.0546736284172518 C6.930249589141136 1.2564438327477958, 11.868876148591609 0.4655901359862087, 13.292968750000004 0 C14.717061351408399 -0.4655901359862087, 13.292968750000005 0.0435221354166663, 13.292968750000005 0.26113281249999964 M13.292968750000005 0 C15.998744692675956 -0.16669944994304586, 19.655687910858873 1.2564438327477936, 21.837524358450374 3.05467362841725 C24.019360806041874 4.852903424086707, 25.889405265421956 8.034330889169613, 26.38398743554901 10.789378774016738 C26.878569605676063 13.544426658863863, 26.22910998062108 17.162212487741787, 24.805017379212686 19.584960937499996 C23.380924777804292 22.007709387258206, 20.515850444817197 24.369051383388335, 17.839431827098643 25.325869472566005 C15.16301320938009 26.282687561743675, 11.422924290619921 26.28268756174368, 8.746505672901367 25.32586947256601 C6.070087055182814 24.36905138338834, 3.205012722195719 22.00770938725821, 1.780920120787325 19.584960937499996 C0.35682751937893076 17.162212487741783, -0.29263210567605064 13.54442665886386, 0.20195006445100105 10.789378774016736 C0.6965322345780527 8.034330889169611, 2.566576693958135 4.8529034240867075, 4.748413141549635 3.0546736284172518 C6.930249589141136 1.2564438327477958, 11.868876148591609 0.4655901359862087, 13.292968750000004 0 C14.717061351408399 -0.4655901359862087, 13.292968750000005 0.0435221354166663, 13.292968750000005 0.26113281249999964" stroke="#000000" stroke-width="1" fill="none"></path></g><g><g transform="translate(323.271484375 127.111328125) rotate(0 6.266039062499999 7.585931152343761)"><path d="M0 0 C0.0400390625 2.5042317708333335, -1.98046875 13.809895833333334, 0.240234375 15.025390625 C2.4609375 16.240885416666668, 13.3642578125 9.797200520833334, 13.32421875 7.29296875 C13.2841796875 4.788736979166666, 2.220703125 1.2154947916666667, 0 0 M0 0 C0.0400390625 2.5042317708333335, -1.98046875 13.809895833333334, 0.240234375 15.025390625 C2.4609375 16.240885416666668, 13.3642578125 9.797200520833334, 13.32421875 7.29296875 C13.2841796875 4.788736979166666, 2.220703125 1.2154947916666667, 0 0" stroke="#000000" stroke-width="1" fill="none"></path></g></g><g transform="translate(46.818359375 118.09765625) rotate(0 18.3125 17.6513671875)"><path d="M0 0 C8.705996155983303 0, 17.411992311966607 0, 36.625 0 M0 0 C12.522735961840956 0, 25.045471923681912 0, 36.625 0 M36.625 0 C36.625 7.265770023527694, 36.625 14.531540047055389, 36.625 35.302734375 M36.625 0 C36.625 13.686093044584595, 36.625 27.37218608916919, 36.625 35.302734375 M36.625 35.302734375 C28.639947765076066 35.302734375, 20.65489553015213 35.302734375, 0 35.302734375 M36.625 35.302734375 C23.29665735779563 35.302734375, 9.968314715591259 35.302734375, 0 35.302734375 M0 35.302734375 C0 21.87780144390217, 0 8.45286851280434, 0 0 M0 35.302734375 C0 27.601653338001597, 0 19.900572301003194, 0 0" stroke="#000000" stroke-width="1" fill="none"></path></g><g transform="translate(46.66015625 162.9033203125) rotate(0 149.708984375 17.55078125)"><path d="M0 0 C94.7454282067094 0, 189.4908564134188 0, 299.41796875 0 M0 0 C75.73363903235696 0, 151.46727806471392 0, 299.41796875 0 M299.41796875 0 C299.41796875 8.333566141049232, 299.41796875 16.667132282098464, 299.41796875 35.1015625 M299.41796875 0 C299.41796875 8.599856359695696, 299.41796875 17.199712719391393, 299.41796875 35.1015625 M299.41796875 35.1015625 C203.61048511177466 35.1015625, 107.80300147354936 35.1015625, 0 35.1015625 M299.41796875 35.1015625 C197.18122639643443 35.1015625, 94.94448404286885 35.1015625, 0 35.1015625 M0 35.1015625 C0 25.718448045975673, 0 16.335333591951347, 0 0 M0 35.1015625 C0 26.802686290212293, 0 18.50381008042459, 0 0" stroke="#000000" stroke-width="1" fill="none"></path></g><g transform="translate(314.615234375 166.4755859375) rotate(0 13.29296875 13.056640625)"><path d="M13.292968750000005 0 C15.998744692675956 -0.16669944994304586, 19.655687910858873 1.2564438327477936, 21.837524358450374 3.05467362841725 C24.019360806041874 4.852903424086707, 25.889405265421956 8.034330889169613, 26.38398743554901 10.789378774016738 C26.878569605676063 13.544426658863863, 26.22910998062108 17.162212487741787, 24.805017379212686 19.584960937499996 C23.380924777804292 22.007709387258206, 20.515850444817197 24.369051383388335, 17.839431827098643 25.325869472566005 C15.16301320938009 26.282687561743675, 11.422924290619921 26.28268756174368, 8.746505672901367 25.32586947256601 C6.070087055182814 24.36905138338834, 3.205012722195719 22.00770938725821, 1.780920120787325 19.584960937499996 C0.35682751937893076 17.162212487741783, -0.29263210567605064 13.54442665886386, 0.20195006445100105 10.789378774016736 C0.6965322345780527 8.034330889169611, 2.566576693958135 4.8529034240867075, 4.748413141549635 3.0546736284172518 C6.930249589141136 1.2564438327477958, 11.868876148591609 0.4655901359862087, 13.292968750000004 0 C14.717061351408399 -0.4655901359862087, 13.292968750000005 0.0435221354166663, 13.292968750000005 0.26113281249999964 M13.292968750000005 0 C15.998744692675956 -0.16669944994304586, 19.655687910858873 1.2564438327477936, 21.837524358450374 3.05467362841725 C24.019360806041874 4.852903424086707, 25.889405265421956 8.034330889169613, 26.38398743554901 10.789378774016738 C26.878569605676063 13.544426658863863, 26.22910998062108 17.162212487741787, 24.805017379212686 19.584960937499996 C23.380924777804292 22.007709387258206, 20.515850444817197 24.369051383388335, 17.839431827098643 25.325869472566005 C15.16301320938009 26.282687561743675, 11.422924290619921 26.28268756174368, 8.746505672901367 25.32586947256601 C6.070087055182814 24.36905138338834, 3.205012722195719 22.00770938725821, 1.780920120787325 19.584960937499996 C0.35682751937893076 17.162212487741783, -0.29263210567605064 13.54442665886386, 0.20195006445100105 10.789378774016736 C0.6965322345780527 8.034330889169611, 2.566576693958135 4.8529034240867075, 4.748413141549635 3.0546736284172518 C6.930249589141136 1.2564438327477958, 11.868876148591609 0.4655901359862087, 13.292968750000004 0 C14.717061351408399 -0.4655901359862087, 13.292968750000005 0.0435221354166663, 13.292968750000005 0.26113281249999964" stroke="#000000" stroke-width="1" fill="none"></path></g><g><g transform="translate(323.279296875 171.7763671875) rotate(0 6.266039062499999 7.585931152343761)"><path d="M0 0 C0.0400390625 2.5042317708333335, -1.98046875 13.809895833333334, 0.240234375 15.025390625 C2.4609375 16.240885416666668, 13.3642578125 9.797200520833334, 13.32421875 7.29296875 C13.2841796875 4.788736979166666, 2.220703125 1.2154947916666667, 0 0 M0 0 C0.0400390625 2.5042317708333335, -1.98046875 13.809895833333334, 0.240234375 15.025390625 C2.4609375 16.240885416666668, 13.3642578125 9.797200520833334, 13.32421875 7.29296875 C13.2841796875 4.788736979166666, 2.220703125 1.2154947916666667, 0 0" stroke="#000000" stroke-width="1" fill="none"></path></g></g><g transform="translate(46.826171875 162.7626953125) rotate(0 18.3125 17.6513671875)"><path d="M0 0 C14.388597370556091 0, 28.777194741112183 0, 36.625 0 M0 0 C12.39687622928759 0, 24.79375245857518 0, 36.625 0 M36.625 0 C36.625 9.874930133678392, 36.625 19.749860267356784, 36.625 35.302734375 M36.625 0 C36.625 8.100858787861398, 36.625 16.201717575722796, 36.625 35.302734375 M36.625 35.302734375 C26.03146499780705 35.302734375, 15.437929995614102 35.302734375, 0 35.302734375 M36.625 35.302734375 C26.42592664292315 35.302734375, 16.2268532858463 35.302734375, 0 35.302734375 M0 35.302734375 C0 24.865905867613947, 0 14.429077360227893, 0 0 M0 35.302734375 C0 22.370812770764132, 0 9.438891166528265, 0 0" stroke="#000000" stroke-width="1" fill="none"></path></g><g transform="translate(186.541015625 275.74609375) rotate(0 13.29296875 13.056640625)"><path d="M13.292968750000005 0 C15.998744692675956 -0.16669944994304586, 19.655687910858873 1.2564438327477936, 21.837524358450374 3.05467362841725 C24.019360806041874 4.852903424086707, 25.889405265421956 8.034330889169613, 26.38398743554901 10.789378774016738 C26.878569605676063 13.544426658863863, 26.22910998062108 17.162212487741787, 24.805017379212686 19.584960937499996 C23.380924777804292 22.007709387258206, 20.515850444817197 24.369051383388335, 17.839431827098643 25.325869472566005 C15.16301320938009 26.282687561743675, 11.422924290619921 26.28268756174368, 8.746505672901367 25.32586947256601 C6.070087055182814 24.36905138338834, 3.205012722195719 22.00770938725821, 1.780920120787325 19.584960937499996 C0.35682751937893076 17.162212487741783, -0.29263210567605064 13.54442665886386, 0.20195006445100105 10.789378774016736 C0.6965322345780527 8.034330889169611, 2.566576693958135 4.8529034240867075, 4.748413141549635 3.0546736284172518 C6.930249589141136 1.2564438327477958, 11.868876148591609 0.4655901359862087, 13.292968750000004 0 C14.717061351408399 -0.4655901359862087, 13.292968750000005 0.0435221354166663, 13.292968750000005 0.26113281249999964 M13.292968750000005 0 C15.998744692675956 -0.16669944994304586, 19.655687910858873 1.2564438327477936, 21.837524358450374 3.05467362841725 C24.019360806041874 4.852903424086707, 25.889405265421956 8.034330889169613, 26.38398743554901 10.789378774016738 C26.878569605676063 13.544426658863863, 26.22910998062108 17.162212487741787, 24.805017379212686 19.584960937499996 C23.380924777804292 22.007709387258206, 20.515850444817197 24.369051383388335, 17.839431827098643 25.325869472566005 C15.16301320938009 26.282687561743675, 11.422924290619921 26.28268756174368, 8.746505672901367 25.32586947256601 C6.070087055182814 24.36905138338834, 3.205012722195719 22.00770938725821, 1.780920120787325 19.584960937499996 C0.35682751937893076 17.162212487741783, -0.29263210567605064 13.54442665886386, 0.20195006445100105 10.789378774016736 C0.6965322345780527 8.034330889169611, 2.566576693958135 4.8529034240867075, 4.748413141549635 3.0546736284172518 C6.930249589141136 1.2564438327477958, 11.868876148591609 0.4655901359862087, 13.292968750000004 0 C14.717061351408399 -0.4655901359862087, 13.292968750000005 0.0435221354166663, 13.292968750000005 0.26113281249999964" stroke="#000000" stroke-width="1" fill="none"></path></g><g><g transform="translate(195.205078125 281.046875) rotate(0 6.266039062499999 7.585931152343761)"><path d="M0 0 C0.0400390625 2.5042317708333335, -1.98046875 13.809895833333334, 0.240234375 15.025390625 C2.4609375 16.240885416666668, 13.3642578125 9.797200520833334, 13.32421875 7.29296875 C13.2841796875 4.788736979166666, 2.220703125 1.2154947916666667, 0 0 M0 0 C0.0400390625 2.5042317708333335, -1.98046875 13.809895833333334, 0.240234375 15.025390625 C2.4609375 16.240885416666668, 13.3642578125 9.797200520833334, 13.32421875 7.29296875 C13.2841796875 4.788736979166666, 2.220703125 1.2154947916666667, 0 0" stroke="#000000" stroke-width="1" fill="none"></path></g></g><g transform="translate(36.611328125 280.9609375) rotate(0 59 9)"><text x="0" y="14" font-family="Helvetica" font-size="16px" fill="#000000" text-anchor="start" style="white-space: pre;">current song title</text></g><g transform="translate(258.78125 280.349609375) rotate(0 37 9)"><text x="0" y="14" font-family="Helvetica" font-size="16px" fill="#000000" text-anchor="start" style="white-space: pre;">timestamp</text></g><g transform="translate(91.048828125 126.271484375) rotate(0 32 9)"><text x="0" y="14" font-family="Helvetica" font-size="16px" fill="#000000" text-anchor="start" style="white-space: pre;">song title</text></g><g transform="translate(90.748046875 171.109375) rotate(0 32 9)"><text x="0" y="14" font-family="Helvetica" font-size="16px" fill="#000000" text-anchor="start" style="white-space: pre;">song title</text></g></svg>