<svg version="1.1" xmlns="http://www.w3.org/2000/svg" viewBox="0 0 1103.4443623310806 482.0482511067102">
  <!-- svg-source:excalidraw -->
  <rect x="0" y="0" width="1103.4443623310806" height="482.0482511067102" fill="#ffffff"></rect><g transform="translate(173.7734375 68.8203125) rotate(0 75.5625 48.44140625)"><path d="M43.93442821579397 3.2550827226967627 C54.105997179710414 -0.39205567074216985, 70.16144277547484 -0.39172279353767203, 82.09400069781394 0.1877359641251246 C94.02655862015304 0.7671947217879213, 105.48779047244042 2.6453020004640697, 115.52977574982859 6.731835268673542 C125.57176102721675 10.818368536883014, 136.453082189043 17.701042289006892, 142.34591236214288 24.70693557338196 C148.23874253524278 31.712828857757025, 150.89725588413177 40.91856131073375, 150.88675678842793 48.76719497492394 C150.8762576927241 56.61582863911413, 147.9157398623312 65.31991587020154, 142.28291778791984 71.79873755852309 C136.65009571350848 78.27755924684463, 126.82226338415559 83.4713847818233, 117.08982434195971 87.64012510485324 C107.35738529976383 91.80886542788318, 95.74239444320459 95.9289674072822, 83.88828353474457 96.81117949670266 C72.03417262628456 97.69339158612313, 57.211105801844894 95.80208342328243, 45.96515889119965 92.93339764137599 C34.719211980554405 90.06471185946955, 23.719540518076958 85.49159610222836, 16.412602070873106 79.59906480526408 C9.105663623669255 73.7065335082998, 4.327982720020222 65.1095316860827, 2.1235282079765483 57.5782098595903 C-0.08092630406712464 50.04688803309789, -0.14064968302520953 41.577268917052656, 3.1858749986110695 34.411133846309625 C6.5123996802473485 27.244998775566593, 14.601617362588375 19.64453117136696, 22.082676297794222 14.581399435132113 C29.56373523300007 9.518267698897265, 42.964820195078914 5.907584687588707, 48.072228609846164 4.032343428900532 C53.17963702461341 2.157102170212357, 52.11953626108412 2.53572465980144, 52.7271267863977 3.329951883003062 M39.115215316265726 6.51179346997607 C48.210648005213116 2.660558256032807, 62.079536663981905 1.2210180068883763, 74.14592209354355 1.2623815869329533 C86.21230752310518 1.3037451669775304, 100.88939174478115 3.3412189257881555, 111.51352789363555 6.759974950243532 C122.13766404248996 10.178730974698908, 131.28788289478956 15.648477404208155, 137.89073898666996 21.77491773366521 C144.49359507855036 27.901358063122263, 149.7892032250001 35.94722510590098, 151.13066444491795 43.51861692698586 C152.4721256648358 51.09000874807073, 150.93099330536367 59.87852484336698, 145.9395063061771 67.20326866017443 C140.94801930699052 74.52801247698189, 130.8964676511425 82.7747375895539, 121.18174244979853 87.46707982783056 C111.46701724845457 92.15942206610723, 99.11665559557775 94.17688466472403, 87.65115509811325 95.35732208983441 C76.18565460064875 96.5377595149448, 63.35446518365479 96.68497436390177, 52.38873946501151 94.54970437849289 C41.423013746368234 92.41443439308401, 30.01613371920031 88.35156757108743, 21.856800786253594 82.54570217738113 C13.697467853306874 76.73983678367483, 6.620670716533663 67.43825189179779, 3.4327418673311882 59.71451201625509 C0.24481301812871337 51.990772140712394, -0.060189631856992776 43.5072782533893, 2.7292276910387443 36.203262924124935 C5.518645013934481 28.89924759486057, 13.934826175611011 21.00385847943864, 20.16924580470561 15.890420040668886 C26.40366543380021 10.77698160189913, 36.96350034342382 7.253657119941619, 40.135745465606334 5.522632291506412 C43.30799058778885 3.7916074630712044, 38.659331196337405 4.899609224307518, 39.20271653780071 5.504271070057641" stroke="#000000" stroke-width="1" fill="none"></path></g><g><g transform="translate(226.4453125 162.40625) rotate(0 -68.08577860258521 79.87248545581011)"><path d="M0.8546586725860832 -0.7712155971676111 C-21.968057122454045 25.621022229020795, -114.30928735993803 132.92174947323898, -137.02621587775647 159.37164606712759 M-0.20612532000057393 1.6646782522927972 C-22.59478397439234 28.12915231570912, -112.96268728534692 134.4639500609568, -135.6942085743975 160.5161865087878" stroke="#000000" stroke-width="1" fill="none"></path></g><g transform="translate(226.4453125 162.40625) rotate(0 -68.08577860258521 79.87248545581011)"><path d="M-126.38887313426429 130.8675975347473 C-127.45446346196907 141.78540102097162, -132.9581148106183 147.45477750274438, -133.8042171773594 160.29091293501668 M-125.38609744188332 131.85304445629703 C-130.16814759609326 143.1264765948498, -133.09164508324452 154.94414655886874, -135.27527775793337 160.72562804861926" stroke="#000000" stroke-width="1" fill="none"></path></g><g transform="translate(226.4453125 162.40625) rotate(0 -68.08577860258521 79.87248545581011)"><path d="M-110.8245811712388 144.24193183876181 C-116.55631258003216 151.3585059224308, -126.61262165333795 153.1158016924077, -133.8042171773594 160.29091293501668 M-109.82180547885784 145.22737876031155 C-120.7170230583287 151.39520551849134, -129.7256299017747 157.9839651664542, -135.27527775793337 160.72562804861926" stroke="#000000" stroke-width="1" fill="none"></path></g></g><g><g transform="translate(270.87109375 161.74609375) rotate(0 51.770194740281454 82.21014783614783)"><path d="M0.6640477392822504 -0.1515771064907312 C17.78008977708717 27.087588108206788, 85.94824725526075 136.51305035812157, 102.89961758591235 164.0842395748943 M0.6407718946505336 0.04012667591683572 C17.780637880659974 27.305095670872056, 85.71725103139568 137.02432816699456, 102.89289818157442 164.57187277878634" stroke="#000000" stroke-width="1" fill="none"></path></g><g transform="translate(270.87109375 161.74609375) rotate(0 51.770194740281454 82.21014783614783)"><path d="M79.04909866322144 147.40844360728948 C85.32684041533102 152.27283214024052, 94.7895249966046 157.71513077109333, 103.96618649748154 165.27216993140988 M80.18507678918853 146.20856216446697 C87.48388450475106 151.8145581795026, 92.79889133529065 158.28873020179952, 103.33344843716361 164.37326032443903" stroke="#000000" stroke-width="1" fill="none"></path></g><g transform="translate(270.87109375 161.74609375) rotate(0 51.770194740281454 82.21014783614783)"><path d="M96.48089925105845 136.58013207447306 C97.29226765057174 144.97298558729648, 101.22999335666042 153.84728629992185, 103.96618649748154 165.27216993140988 M97.61687737702553 135.38025063165054 C99.69613298022779 144.21621355595968, 99.74337667196626 153.9626224341455, 103.33344843716361 164.37326032443903" stroke="#000000" stroke-width="1" fill="none"></path></g></g><g transform="translate(10 323.34765625) rotate(0 73.19921875 33.23046875000003)"><path d="M80.06812322472501 -0.16558080286881705 C91.45832434633327 -0.35358402173239634, 104.61240481311924 2.167911259294545, 114.59117322496309 5.486726076081979 C124.56994163680693 8.805540892869413, 134.549558559637 14.510255260498862, 139.94073369578808 19.747308097855786 C145.33190883193916 24.98436093521271, 148.06458382325485 31.46799574158934, 146.9382240418695 36.90904310022353 C145.81186426048413 42.350090458857714, 140.35267438654873 47.87033618591196, 133.18257500747595 52.393592249660905 C126.01247562840318 56.91684831340985, 115.02884325285206 61.71605978449385, 103.91762776743288 64.04857948271722 C92.8064122820137 66.38109918094058, 78.69811121983062 66.81768320605498, 66.51528209496085 66.38871043900107 C54.33245297009108 65.95973767194717, 40.588353078703584 64.50272256399822, 30.820653018214266 61.47474288039379 C21.052952957724948 58.44676319678936, 13.052232497617695 53.45441094182634, 7.909081732024944 48.220832337374496 C2.765930966432193 42.98725373292265, -1.0425704187045202 35.58152069908741, -0.03825157534224388 30.073271253682712 C0.9660672680200324 24.565021808278015, 7.014165689737584 19.643695273240574, 13.934994792198601 15.171335664946305 C20.85582389465962 10.698976056652036, 30.594574995404137 5.846176804698727, 41.486723039423865 3.2391136039171045 C52.37887108344359 0.6320504031354823, 71.25066363900699 -0.10931656939058126, 79.28788305631699 -0.4710435397434267 C87.32510247362698 -0.8327705100962721, 86.67950264494799 0.5805414963732016, 89.71003954328384 1.0687517818000316 C92.7405764416197 1.5569620672268616, 97.89272476312493 1.9926595883266558, 97.47110444633208 2.4582181728175527 M99.806943840336 3.5985720708118762 C110.79642751999974 5.2768001811280305, 122.01736397883757 9.74079255660874, 129.53896666732277 13.548712514234868 C137.06056935580796 17.356632471860994, 142.7301942936731 21.267778577794925, 144.93655997124722 26.44609181656864 C147.14292564882135 31.624405055342354, 147.1749142725208 39.26836531493893, 142.77716073276753 44.61859194687715 C138.37940719301426 49.96881857881537, 128.03950860553144 54.86845395839808, 118.55003873272763 58.54745160819796 C109.0605688599238 62.22644925799784, 97.61353514500435 65.85089542394512, 85.84034149594461 66.69257784567642 C74.06714784688488 67.53426026740773, 59.23468518934347 65.37819540343656, 47.91087683836919 63.5975461385858 C36.58706848739491 61.816896873735026, 25.670908719206345 60.29623170807158, 17.897491390098914 56.008682256571795 C10.124074060991482 51.72113280507201, 3.5406132193068593 43.33375153756716, 1.270372863724603 37.87224942958707 C-0.9998674918576533 32.41074732160698, -0.003325401646364412 28.173606412277472, 4.276049256605376 23.239669608691273 C8.555423914857116 18.305732805105073, 17.82962055562117 12.039286455577097, 26.946620813235043 8.268628608069871 C36.06362107084892 4.497970760562646, 46.900135588061424 1.5696211628625085, 58.97805080228862 0.6157225236479178 C71.05596601651582 -0.3381761155666728, 92.96919939883708 2.4164716079870896, 99.41411209859824 2.545236772782328 C105.8590247983594 2.6740019375775663, 97.73432553679663 1.5812878355440272, 97.6475270008556 1.388313512419348 C97.56072846491458 1.1953391892946688, 99.13310466166865 0.5880110593329212, 98.89332088295203 1.3873908340342531" stroke="#000000" stroke-width="1" fill="none"></path></g><g transform="translate(306.1796875 327.11328125) rotate(0 72.5546875 35.958984375)"><path d="M105.43098479494807 3.568032663352035 C116.06311385575046 5.7503554596259825, 126.04418022909375 11.118743692044987, 132.4945176119952 16.053643729956345 C138.94485499489664 20.988543767867704, 143.21032495564654 27.227206753994803, 144.13300909235676 33.177432890820185 C145.05569322906697 39.12765902764557, 143.1876088541405 46.385866317814965, 138.03062243225645 51.75500055090865 C132.8736360103724 57.12413478400233, 123.22691970347014 62.04292375725687, 113.19109056105245 65.39223828938226 C103.15526141863475 68.74155282150765, 89.85171197423705 71.23035449769797, 77.81564757775027 71.85088774366099 C65.77958318126349 72.47142098962401, 51.85519148683731 71.77332052166433, 40.97470418213173 69.11543776516034 C30.09421687742615 66.45755500865634, 19.36457961252974 61.0045107029141, 12.53272374951677 55.903591204636996 C5.700867886503798 50.802671706359895, 0.9261389749308945 44.48569276030085, -0.016430995946095095 38.50992077549773 C-0.9590009668230847 32.534148790694616, 1.6474370936917637 25.413438040059305, 6.877303924254832 20.048959295818307 C12.1071707548179 14.684480551577309, 21.329869321352135 9.557930919243114, 31.362769987432316 6.323048310051739 C41.3956706535125 3.088165700860363, 55.26216109431031 1.0407851848979526, 67.07470792073593 0.6396636406700509 C78.88725474716156 0.2385420964421492, 94.95143475634009 3.3067610600981694, 102.23805094598607 3.916319044684329 C109.52466713563206 4.525877029270489, 108.8521876900115 3.74063224785002, 110.79440505861186 4.297011548187008 C112.73662242721221 4.853390848523996, 114.57710297471007 6.536337727890381, 113.89135515758818 7.254594846706258 M85.08419489115609 -0.6001056775860434 C96.34438831375058 -0.13639317364102865, 108.94393151379148 3.4155917061022776, 118.3463917137586 7.414662505468652 C127.74885191372573 11.413733304835025, 137.40960173881012 17.600691866074055, 141.49895609095879 23.394319118612202 C145.58831044310745 29.18794637115035, 145.06946331325656 36.323448858867536, 142.88251782665048 42.17642602069754 C140.6955723400444 48.029403182527545, 135.63617183371926 54.04716185778328, 128.3772831713223 58.51218208959225 C121.11839450892532 62.97720232140122, 110.11823474333207 66.68227817735307, 99.32918585226868 68.96654741155135 C88.54013696120529 71.25081664574962, 75.3112186385019 72.97201354734042, 63.642989824942 72.21779749478188 C51.9747610113821 71.46358144222333, 39.094287226471735 68.04887402000358, 29.31981297090927 64.44125109620005 C19.5453387153468 60.83362817239651, 10.020534406919875 55.91119785240537, 4.996144291567191 50.572059951960654 C-0.02824582378549234 45.232922051515935, -2.6233624686706873 38.72246166291755, -0.8265277212068298 32.40642369353172 C0.9703070262570275 26.090385724145886, 8.395482410049095 17.515482350732064, 15.777152776350334 12.67583213564565 C23.158823142651574 7.836181920559233, 32.632451525319894 5.541278347962077, 43.4634944766006 3.3685224030132233 C54.29453742788131 1.1957664580643694, 74.03716589359036 0.21972764696491254, 80.7634104840346 -0.3607035340474738 C87.48965507447883 -0.9411347150598601, 83.49619980639545 -0.1416236680401918, 83.82096201926599 -0.11406468306109474 C84.14572423213653 -0.08650569808199766, 82.75198020265724 -1.033966310011392, 82.71198376125786 -0.19534962417289137" stroke="#000000" stroke-width="1" fill="none"></path></g><g transform="translate(31.30078125 346.341796875) rotate(0 47 12.5)"><text x="0" y="18" font-family="sans-serif" font-size="20px" fill="#000000" text-anchor="start">machine A</text></g><g transform="translate(329.35546875 350.5625) rotate(0 47.5 12.5)"><text x="0" y="18" font-family="sans-serif" font-size="20px" fill="#000000" text-anchor="start">machine B</text></g><g transform="translate(196.80859375 103.65625) rotate(0 56.5 12.5)"><text x="0" y="18" font-family="sans-serif" font-size="20px" fill="#000000" text-anchor="start">parent SFC</text></g><g transform="translate(815.9287373310806 68.74598817567568) rotate(0 75.5625 48.44140625)"><path d="M69.21002596631251 0.3474826306302887 C80.63196540971033 -1.1537449071800907, 95.5718718518479 0.8575813959770779, 106.48574452765796 3.734648531851306 C117.39961720346801 6.611715667725534, 127.5535920995549 11.64146126531718, 134.6932620211728 17.60988544587566 C141.8329319427907 23.578309626434137, 147.25886867427414 31.95325258988507, 149.3237640573654 39.54519361520217 C151.38865944045665 47.13713464051928, 150.8285439962512 55.95628510570461, 147.0826343197204 63.16153159777828 C143.3367246431896 70.36677808985195, 135.59399399731242 77.4423378349447, 126.84830599818063 82.7766725676442 C118.10261799904885 88.1110073003437, 106.01462115456528 92.9432790831267, 94.60850632492966 95.16753999397532 C83.20239149529405 97.39180090482395, 69.91190894868828 97.73226796269168, 58.41161702036697 96.12223803273594 C46.911325092045665 94.51220810278019, 34.539269522630235 90.7456912235137, 25.606754755001845 85.50736041424085 C16.674239987373454 80.269029604968, 8.89257849301654 71.88916038442937, 4.8165284145966325 64.69225317709883 C0.7404783361767242 57.495345969768294, -0.5650196991762257 50.00507935899225, 1.150454284482393 42.32591717025762 C2.865928268141012 34.64675498152299, 8.056829565666153 24.94018103151907, 15.109372316548345 18.617280044691057 C22.161915067430538 12.294379057863043, 33.37793008341642 7.634446147151422, 43.46571078977554 4.388511249289536 C53.55349149613466 1.1425763514276497, 69.29374923055454 -0.28215265771803766, 75.63605655470305 -0.8583293424802605 C81.97836387885155 -1.4345060272424832, 81.68201660334348 -0.17082241843171997, 81.5195547346666 0.9314511407161987 M58.67277438991704 -0.2793809693611209 C69.68034783176714 -2.507308326372191, 85.95698896467616 -1.4374652643916668, 97.68329389301603 1.0090109241159837 C109.4095988213559 3.455487112623634, 120.5455746327855 9.039991679848004, 129.03060395995627 14.399476161684781 C137.51563328712703 19.758960643521558, 145.2990318559751 25.841880533086737, 148.5934698560406 33.16591781513664 C151.8879078561061 40.48995509718654, 151.0080712724361 50.69953185709153, 148.79723196034917 58.343699853984184 C146.58639264826223 65.98786785087684, 142.56830508787456 73.19038498232122, 135.32843398351906 79.03092579649258 C128.08856287916356 84.87146661066394, 116.53845423314289 90.22495402032916, 105.35800533421617 93.38694473901239 C94.17755643528946 96.54893545769562, 80.1482748151124 99.00910262523927, 68.24574058995874 98.00287010859199 C56.34320636480509 96.99663759194472, 43.90025173994084 91.66509029525149, 33.94279998329426 87.34954963912878 C23.985348226647673 83.03400898300607, 14.126151583979219 78.7765777612024, 8.501030050079237 72.10962617185574 C2.875908516179255 65.44267458250907, -0.00991113970174004 55.26074171929248, 0.19207077989436527 47.347840103048775 C0.3940526994904706 39.434938486805066, 3.9425699551917726 31.131807541840622, 9.712921567655869 24.632216474393484 C15.483273180119966 18.132625406946346, 26.31752665072159 12.202386341636021, 34.81418045467894 8.350293698365938 C43.31083425863629 4.498201055095855, 56.731655702858454 2.534143574621691, 60.69284439139998 1.519660614772988 C64.65403307994151 0.5051776549242852, 58.46623504273261 1.6090439679266404, 58.58131258592811 2.263395939273721" stroke="#000000" stroke-width="1" fill="none"></path></g><g><g transform="translate(868.6006123310806 162.33192567567568) rotate(0 -68.4333163522789 79.21750621108804)"><path d="M0.4464252915233373 -0.20475287698209288 C-22.42946445085108 26.627873175715404, -113.76740310527383 133.4166063680003, -136.5042498026043 159.99605973698198 M-0.4092432526219636 -1.56104731480591 C-23.558889561342074 24.85836466500846, -114.64969915722497 131.44388263523268, -137.3130579960812 158.03575241495855" stroke="#000000" stroke-width="1" fill="none"></path></g><g transform="translate(868.6006123310806 162.33192567567568) rotate(0 -68.4333163522789 79.21750621108804)"><path d="M-127.14940271786614 129.22488846890928 C-129.30180944190823 140.3356642296386, -134.31761302586142 152.08429470677538, -137.83843445939013 157.58849202957936 M-126.97824152167155 129.34698997792157 C-129.74178595443593 134.9611903259969, -131.92111021315478 141.86064654188942, -136.94632519290784 158.594894396374" stroke="#000000" stroke-width="1" fill="none"></path></g><g transform="translate(868.6006123310806 162.33192567567568) rotate(0 -68.4333163522789 79.21750621108804)"><path d="M-111.54433134062842 142.55161911438853 C-119.24396975414894 148.8883001566883, -129.91802741956593 155.8047817609053, -137.83843445939013 157.58849202957936 M-111.37317014443383 142.6737206234008 C-117.39714218101486 145.3388260632511, -122.92682639002024 149.37707494830133, -136.94632519290784 158.594894396374" stroke="#000000" stroke-width="1" fill="none"></path></g></g><g><g transform="translate(913.0263935810806 161.67176942567568) rotate(0 50.72336558608811 81.94208105572966)"><path d="M-0.20475287698209288 -0.4261248026043176 C17.129826300715408 27.019320166731877, 85.92637199300032 137.3722657845666, 103.00777848698199 165.1190951075405 M-1.56104731480591 -1.2349329960811883 C15.36031779000846 26.283999831729258, 83.95364826023268 137.1449613584609, 101.04747116495855 164.7043537142407" stroke="#000000" stroke-width="1" fill="none"></path></g><g transform="translate(913.0263935810806 161.67176942567568) rotate(0 50.72336558608811 81.94208105572966)"><path d="M76.77116199030749 147.68932425798135 C82.82946830510652 150.54548113886233, 89.49564614193791 153.70027018659547, 100.60021077957936 162.99829107510857 M76.89326349931977 145.6512657898407 C81.90847653100705 150.0839539121885, 88.25433667492739 155.1798323318323, 101.606613146374 165.04693861945532" stroke="#000000" stroke-width="1" fill="none"></path></g><g transform="translate(913.0263935810806 161.67176942567568) rotate(0 50.72336558608811 81.94208105572966)"><path d="M94.21758199728018 136.88458310762786 C96.53558542432887 142.0522720639375, 99.42126445909426 147.54836155951148, 100.60021077957936 162.99829107510857 M94.33968350629246 134.8465246394872 C95.23744949434571 141.76182700205393, 97.52671476896667 149.369994905564, 101.606613146374 165.04693861945532" stroke="#000000" stroke-width="1" fill="none"></path></g></g><g transform="translate(652.4092060810806 323.2733319256757) rotate(0 73.19921875 33.23046875)"><path d="M10.162901483033856 15.459540443678248 C10.162901483033856 15.459540443678248, 10.162901483033856 15.459540443678248, 10.162901483033856 15.459540443678248 M10.162901483033856 15.459540443678248 C10.162901483033856 15.459540443678248, 10.162901483033856 15.459540443678248, 10.162901483033856 15.459540443678248 M-0.5127537933728465 32.025105055992235 C7.418085894661967 24.66225336490262, 14.833376824298625 15.593401846587525, 17.053791692554263 10.859708737476923 M1.243718130179607 30.681326856475998 C5.876850161023367 27.175319671951662, 10.501461876827783 21.167693258259575, 19.164532494805066 12.428974185965219 M1.7847244974558052 35.2594280090473 C8.395113765791365 29.66656996437195, 16.099528456189514 20.232496363825284, 25.384743733921503 7.484562109762397 M3.7814957352687415 35.403848477295725 C10.226879700011585 26.91303953653302, 17.577941313841585 18.082807680932692, 26.775905882598316 8.272640888185766 M4.543382757707036 37.49215294039644 C11.347714315291501 31.841150430324497, 18.93430016057806 23.30988078952598, 34.373103772055075 7.230925370498184 M4.563106164699889 39.56073189238853 C15.601084131075282 29.164095145494134, 24.908061262734083 17.15478728500611, 34.594033237311706 5.717142773351256 M6.875761949965099 42.8079867737231 C18.44548174552981 31.065104220922088, 32.01453566641025 13.420083310273018, 40.5284700575677 3.6761498090360725 M7.260996386916677 42.45949286332849 C16.144202517055724 33.507503606886075, 25.87690378635449 22.038092086059997, 39.656192252917336 5.954241531204101 M10.150262411814257 47.879527057710796 C17.351186570453198 34.99192944721045, 29.822737698105783 25.649514182918306, 47.334095361024666 4.774429438614003 M8.810308682862743 46.97307683918974 C16.949446809144714 36.78660345048398, 26.6719537629315 26.807345531488377, 45.32390108083986 4.686330637872867 M11.304407739876737 52.04860028693406 C24.753857640116074 38.12538576076595, 37.3393791510649 21.604798555815066, 50.59197377001023 3.2022680579154503 M11.31589453001969 52.52744727743743 C21.637098984046673 37.84590279153667, 33.23143137990853 25.2688507908994, 52.22175512702292 4.378152417431654 M13.311112166689337 52.57753735896254 C27.180144396104005 34.76283625088584, 45.223421914118575 19.14913586059094, 57.70428166013713 4.175688831292209 M14.112331979283692 54.25911110103184 C24.513163040864946 39.653178274494735, 36.172814280681784 28.4525815101065, 58.11261802293862 2.980257622122881 M17.307118038874272 53.29644601837078 C33.10377213453809 34.81821220289384, 49.77237739048266 19.88607134528293, 62.20329089798011 1.2297672272049844 M18.486113133136335 54.568641142438146 C29.17376880892347 41.680184898901715, 41.25545138661607 28.299002619951917, 64.02128482852109 1.6147883707978785 M23.091086107044283 58.11861505451058 C36.63249011284977 37.4773478850383, 54.88387290989179 21.701865896473805, 70.44039660915192 1.318807660005568 M21.76748443554974 56.54233034139876 C38.0606204452645 36.99554801890997, 54.19325936500833 18.358242841102914, 69.51725980024244 2.5819047906990633 M26.37321358378364 56.593595141065414 C40.08132993860464 42.49978250944409, 55.75690257667003 25.070427925985065, 77.42814843921784 -0.9135427320681018 M25.17381472996755 58.41152258448779 C40.29780732017405 40.46935453724045, 57.44160567976549 23.75875261183939, 76.15053765202734 -0.4638512045450014 M30.08849802768608 59.98853715694155 C42.85320109840765 47.253819694566744, 54.526634825070744 35.2207511457744, 82.24898317681905 1.7394304560040794 M28.716609143342872 59.54020102600212 C42.10849311051863 45.33457164100032, 56.08236044080827 29.718880889542625, 81.45408617837634 1.2664186279764138 M32.99029637234536 63.59598260604521 C51.573891109038655 43.58610716945532, 67.64130814799242 20.07417276247272, 83.83361018853037 2.789365192682837 M32.38881811512885 61.639028507738615 C47.024511009888954 47.72551352997991, 60.14160930081875 32.21649281637666, 86.31598168922363 1.3440751571146592 M36.24388395534573 63.0416540370599 C51.56250946696084 47.72046965338927, 62.238382704639235 33.41678198418696, 92.30609821592651 2.398290071428846 M38.352146426269094 62.979387978771385 C49.646457048319625 49.377031883888506, 63.21521592519653 33.045867483656465, 90.9182458070033 1.3746589392210353 M41.395777431290426 63.611083784114626 C51.98197928302093 51.77584288907532, 63.63580073438908 39.00323998271457, 96.95319828861075 2.705253051371159 M41.500126112226226 64.62626123612007 C62.955880157333674 41.228173439899955, 81.76691464138955 18.279836179413095, 96.299918379678 2.2307689588152186 M46.93547088776373 66.29327564589286 C60.94262350817038 47.95223545024466, 73.53898999487782 33.4881416888946, 100.13002081118631 4.624692716638769 M47.6136025789439 64.38814060385877 C66.48116759655916 41.684524439667726, 86.53320147040029 18.971181812793155, 100.85648456771034 3.7566838879168287 M52.95264070037835 66.61675278674642 C67.60446377854076 50.08140871226962, 80.41011520097442 31.97033874741866, 105.16571265022797 2.6448095356923957 M50.6116894578942 66.55932683422992 C66.26557017842794 47.02668736813861, 81.96307580254731 29.4022580326793, 105.83930193103446 3.4729833453772088 M55.66705873570907 66.42909067513598 C74.84817471749577 43.85364611607231, 92.39074352929735 22.622043206818425, 108.36460296033897 4.418323342661068 M56.67543180901128 65.60571204608483 C67.9401139030324 52.854296843513325, 79.10660522759972 39.59807159497443, 109.95049625511297 5.073555378216014 M62.77367914835913 66.2423841451906 C82.30038025953651 43.281534929301856, 103.66142365717155 19.22653437225076, 114.25582124213203 6.315554176896576 M62.18664291775776 67.41649678644318 C76.53891128066641 49.57311407507348, 90.4811414619848 31.454080956996123, 114.18632960891797 5.884927301175658 M65.34831546793177 68.03161865603926 C84.35580863950352 45.600197178757426, 105.07243849416102 21.273120421343485, 118.81109248718192 8.713374381859616 M65.22733138209625 68.00881128982456 C84.11997902667804 47.2041129772243, 100.32633226492135 27.371988318073235, 117.64874548988362 7.061467795607463 M72.40937671499225 67.27833197091994 C85.35384846449881 52.946095190069094, 96.44875844827098 35.24008190410548, 119.44588300408242 9.585966086456452 M70.7351872284514 66.4776271573576 C91.35424359459154 44.675254645400585, 110.9603212934128 21.811958248172537, 121.14026464996306 9.082394390808318 M75.60689516914383 64.07079079896161 C91.33451316761742 50.48021656557351, 103.0484594283218 33.804618649809896, 124.26901847642723 10.057902044593312 M76.78635967978582 66.00218399856189 C89.55002908641015 53.478760642428426, 100.55449001294276 41.19198017591192, 125.00735315360937 12.211104303575077 M83.12820345599923 63.902362054516104 C94.70332084550321 49.75481848348302, 108.79736048301027 35.66668853705803, 130.02018396281014 15.466645635176477 M83.09488424257162 65.55061069067987 C97.94369886177407 48.49041259323924, 110.89632026375092 32.60030884580062, 128.6716723777757 13.463924438204643 M88.25967066314273 63.71517453626687 C103.77493278589422 44.81616233499366, 123.67397358552026 27.022503616268445, 134.0074238968249 14.425050862112172 M89.16816882275246 65.82983705778564 C103.87447095283368 46.55574632847608, 120.76347055745596 28.776013100830482, 131.1613290119152 14.57886138649387 M94.69996622416804 65.9814572481202 C108.9599563226521 49.65756925756051, 119.15546157014967 34.08014563392133, 136.0446420870652 15.883862354306665 M94.21400760978142 64.27318219167609 C106.52236414305861 51.08883959814049, 119.35332919770423 36.897424416138506, 136.64212505798093 16.984351427739647 M99.80967797665947 62.25662023875954 C109.79640811308455 53.34132305449464, 122.22639835667228 41.64395475985127, 138.38910171712487 20.194215365666196 M99.98394913460218 64.49968529142531 C113.71811704884655 47.99518502280802, 128.15234540917865 31.932980035674944, 138.9488078304261 19.76801052873884 M107.92457604622973 63.26059292253668 C117.330311312411 50.327559637067964, 127.05868397487268 42.45977704032447, 141.7107482586261 22.43426451576532 M106.68031015368683 63.30169398427571 C113.7547931077583 53.985583149828535, 122.70009630026891 45.174906967216316, 141.14814286923223 22.909513084456634 M110.26128993349154 65.67619533880344 C119.7205995330597 57.147916779066655, 127.54229579931257 46.222075068096615, 143.5902997611247 27.92458798761922 M110.45560273600746 65.34948558496973 C122.60396690675229 50.88290435002723, 134.68205713297323 37.868800638023906, 142.63075422981456 25.70224611579883 M117.38357589093424 61.40041360901556 C129.2826288968883 49.81556691382521, 137.96685420564052 42.197385220642204, 143.92797947523331 31.101912070579687 M118.4725516399128 61.34879255285374 C124.20040498798615 54.208503680143565, 130.71611583734543 48.69595576810178, 146.11360710614508 31.533283812507847 M128.14592799522754 58.75760650386146 C134.5261786676356 48.2831344881738, 140.48201852479232 41.85037726003556, 146.78554711353632 35.78922493833018 M127.44145538543191 57.16025905900678 C132.8262711803981 51.271568962294396, 138.15916618179818 43.851024318929326, 146.07578909166756 35.05975131115777" stroke="#868e96" stroke-width="0.5" fill="none"></path><path d="M76.09135759629716 -0.19275238059463362 C87.52170478778629 -0.7027767479795456, 101.34196837235237 1.5283586684666717, 111.57126182016515 4.4990854000095055 C121.80055526797793 7.46981213155234, 131.77016290071347 12.70531451472937, 137.46711828317387 17.63160800866237 C143.16407366563428 22.557901502595367, 146.29890071562676 28.5744705439887, 145.75299411492756 34.0568463636075 C145.20708751422836 39.53922218322629, 140.59511141258187 45.70631603314375, 134.19167867897866 50.525862926375154 C127.78824594537545 55.34540981960656, 117.84436618341536 60.26478358814163, 107.33239771330828 62.9741277229959 C96.8204292432012 65.68347185785018, 83.12070706684136 66.99451977786568, 71.11986785833616 66.78192773550077 C59.11902864983096 66.56933569313587, 45.79064334367122 64.62741807806911, 35.32736246227705 61.6985754688065 C24.864081580882882 58.76973285954389, 14.063205997205184 54.113789267499875, 8.340182569971148 49.20887207992511 C2.617159142737113 44.30395489235034, 0.6924271870286169 37.88591783386296, 0.9892218988728416 32.269072343357884 C1.2860166107170663 26.65222685285281, 3.8868732899436056 20.197629094444828, 10.120950841036496 15.50779913689465 C16.355028392129388 10.817969179344473, 27.670032311644547 6.741063287120248, 38.39368720543018 4.130092598056816 C49.11734209921582 1.5191219089933834, 66.4678415062279 0.5735357025347572, 74.4628802037503 -0.15802499748594556 C82.4579189012727 -0.8895856975066483, 82.6150955426857 -0.6078725429638041, 86.36391939056463 -0.2592716020674004 C90.11274323844357 0.08932933882900329, 97.11334994793494 1.356930380923595, 96.95582329102395 1.9335806478924766 M50.83580092976614 2.0303372223627107 C61.9041386210999 -0.01804745092739246, 78.19450300253926 0.714639515922905, 90.05888471561855 1.6986253113990273 C101.92326642869783 2.6826111068751497, 113.08383850128942 4.090604924224195, 122.02209120824182 7.934251995219444 C130.96034391519422 11.777899066214694, 139.95090234647373 19.133445349777766, 143.68840095733293 24.760507737370524 C147.42589956819214 30.387570124963283, 147.19695836378966 36.42329506871957, 144.44708287339705 41.69662632077599 C141.69720738300444 46.96995757283241, 135.17105619395315 52.35017370944487, 127.1891480149772 56.40049524970905 C119.20723983600126 60.45081678997324, 108.36549213904829 64.43575694158112, 96.55563379954143 65.99855556236109 C84.74577546003457 67.56135418314106, 68.20466732042756 67.11911295390048, 56.32999797793609 65.77728697438886 C44.45532863544462 64.43546099487723, 34.15457225142673 61.69258226351323, 25.307617744592626 57.9475996852913 C16.460663237758524 54.20261710706937, 7.1947529372117724 48.667311002366226, 3.2482709369314904 43.307391505057296 C-0.6982110633487921 37.94747200774837, -1.135313140825128 31.000101353711774, 1.6287257429109303 25.78808270143773 C4.392764626646988 20.576064049163687, 11.576646591358937 16.283626681666867, 19.83250423934784 12.035279591413033 C28.088361887336745 7.786932501159199, 45.81152486745969 2.023965743667403, 51.163871630844355 0.2980001599147215 C56.51621839422902 -1.4279654238379595, 51.84541198150737 1.477695919292793, 51.94658481965584 1.6794860888969474 C52.04775765780431 1.8812762585011018, 51.38216620444341 0.94403960591329, 51.77090865973516 1.5087411775396475" stroke="#000000" stroke-width="1" fill="none"></path></g><g transform="translate(948.3349873310806 327.0389569256757) rotate(0 72.5546875 35.958984375)"><path d="M78.53780386790817 -0.721214377129975 C89.75542207866665 -0.8048778225942179, 103.3222884471811 2.40304966456619, 113.21620532082767 5.843462293513319 C123.11012219447424 9.283874922460448, 132.70251149084407 14.602417404255235, 137.90130510978761 19.9212613965528 C143.10009872873115 25.240105388850367, 145.3676977026009 31.728290491341742, 144.40896703448885 37.75652624729871 C143.4502363663768 43.78476200325568, 138.76750644657645 50.909253971338686, 132.14892110111526 56.0906759322946 C125.53033575565406 61.27209789325052, 115.38466904118638 66.068040875233, 104.69745496172169 68.84505801303419 C94.010240882257 71.62207515083539, 80.03982402323135 73.29114219029253, 68.02563662432712 72.75277875910176 C56.01144922542289 72.21441532791098, 42.62215884674324 68.91438798723968, 32.612330568296336 65.61487742588956 C22.602502289849433 62.31536686453944, 13.361880624828324 58.38959699357163, 7.9666669536457135 52.955715391001064 C2.5714532824631045 47.5218337884305, -0.3631399964000318 39.14367663393931, 0.24104854120068353 33.011587810466175 C0.8452370788013989 26.87949898699304, 5.007554005201388 21.153476264978732, 11.591798179250006 16.163182450162257 C18.176042353298623 11.172888635345782, 29.02555298876625 5.789948529194689, 39.746513585492394 3.0698249215673314 C50.46747418221854 0.3497013139399736, 67.83681717659947 0.0453017342942085, 75.91756175960688 -0.15755919560189113 C83.9983063426143 -0.36042012549799074, 84.54376916117866 1.270772191669311, 88.23098108353688 1.8526593421907336 C91.91819300589509 2.434546492712156, 98.28361692571406 3.001230346172646, 98.0408332937562 3.333763707526643 M40.970773920490174 4.272169343015065 C50.69984818122999 1.2919506673294623, 66.11325567676934 -1.223534384512434, 77.87091282401484 -0.8514115124293866 C89.62856997126033 -0.4792886403463393, 101.38083601864584 3.1031719556922845, 111.51671680396315 6.504906575513349 C121.65259758928046 9.906641195334414, 132.90792755723223 14.318496382038756, 138.68619753591872 19.558996206497 C144.46446751460522 24.799496030955243, 146.93288766885763 31.73485602486782, 146.18633667608208 37.94790552226281 C145.43978568330652 44.16095501965779, 140.74278237629403 52.023189290057594, 134.20689157926546 56.837293190866916 C127.67100078223689 61.65139709167624, 117.74894591272496 64.07958876976082, 106.97099189391062 66.83252892711874 C96.19303787509628 69.58546908447667, 81.70431127015881 73.46771045729656, 69.5391674663794 73.35493413501447 C57.37402366259999 73.24215781273239, 44.16635704007894 69.59214075919732, 33.98012907123415 66.15587099342625 C23.793901102389363 62.719601227655176, 14.141778845458333 57.82916708963839, 8.421799653310643 52.737315540388025 C2.7018204611629537 47.64546399113766, -0.9342603495786861 41.485121565246345, -0.33974608165198106 35.60476169792408 C0.254768186274724 29.72440183060182, 5.812370222690678 22.630580739034222, 11.988885260870873 17.455156336454444 C18.16540029905107 12.279731933874665, 31.947504559736938 6.905223702357706, 36.71934414742919 4.552215282445417 C41.491183735121446 2.199206862533128, 39.99700455881183 3.300433934354087, 40.61992278702439 3.33710581698071 C41.242841015236955 3.373777699607333, 39.885755577547 4.010385194714051, 40.45685351670457 4.772246578205156" stroke="#000000" stroke-width="1" fill="none"></path></g><g transform="translate(673.4560810810806 346.2674725506757) rotate(0 47 12.5)"><text x="0" y="18" font-family="sans-serif" font-size="20px" fill="#000000" text-anchor="start">machine A</text></g><g transform="translate(971.5107685810806 350.4881756756757) rotate(0 47.5 12.5)"><text x="0" y="18" font-family="sans-serif" font-size="20px" fill="#000000" text-anchor="start">machine B</text></g><g transform="translate(838.9638935810806 103.58192567567568) rotate(0 56.5 12.5)"><text x="0" y="18" font-family="sans-serif" font-size="20px" fill="#000000" text-anchor="start">parent SFC</text></g><g transform="translate(404.9402097409918 101.91979870495499) rotate(0 152.5 12)"><text x="0" y="19" font-family="monospace" font-size="20px" fill="#000000" text-anchor="start">emit({ type: "ANY" }, "A")</text></g><g transform="translate(95.89453125 10) rotate(0 147 17.5)"><text x="0" y="25" font-family="sans-serif" font-size="28px" fill="#000000" text-anchor="start">old virtual DOM tree</text></g><g transform="translate(734.0554884086664 10.58991777337684) rotate(0 152.5 17.5)"><text x="0" y="25" font-family="sans-serif" font-size="28px" fill="#000000" text-anchor="start">new virtual DOM tree</text></g><g transform="translate(542.9104632649885 431.0482511067102) rotate(0 181 12.5)"><text x="0" y="18" font-family="sans-serif" font-size="20px" fill="#000000" text-anchor="start">only the targeted machine rerenders!</text></g><g transform="translate(925.4443623310806 462.0482511067102) rotate(0 84 10)"><text x="84" y="14" font-family="sans-serif" font-size="16px" fill="#adb5bd" text-anchor="middle">Made with Excalidraw</text></g></svg>